<?xml version="1.0" encoding="UTF-8" standalone="no"?><!DOCTYPE svg PUBLIC "-//W3C//DTD SVG 1.1//EN" "http://www.w3.org/Graphics/SVG/1.1/DTD/svg11.dtd"><svg width="100%" height="100%" viewBox="0 0 24 24" version="1.1" xmlns="http://www.w3.org/2000/svg" xmlns:xlink="http://www.w3.org/1999/xlink" xml:space="preserve" xmlns:serif="http://www.serif.com/" style="fill-rule:evenodd;clip-rule:evenodd;stroke-linejoin:round;stroke-miterlimit:2;"><rect id="Filled" x="0" y="0" width="24" height="24" style="fill:none;"/><clipPath id="_clip1"><rect id="Filled1" serif:id="Filled" x="0" y="0" width="24" height="24"/></clipPath><g clip-path="url(#_clip1)"><g id="Context"><path id="reaction" d="M11.319,3.821c-0.076,-0.002 -0.152,-0.003 -0.228,-0.003c-5.021,0 -9.091,4.07 -9.091,9.091c-0,5.02 4.07,9.091 9.091,9.091c5.021,0 9.091,-4.071 9.091,-9.091c-0,-0.076 -0.001,-0.152 -0.003,-0.228c-0.58,0.149 -1.189,0.228 -1.815,0.228c-4.017,0 -7.273,-3.256 -7.273,-7.273c-0,-0.626 0.079,-1.235 0.228,-1.815Zm-0.228,15.452c2.854,-0 5.454,-2.167 5.454,-4.546l0,-0.909l-10.909,0l0,0.909c0,2.379 2.6,4.546 5.455,4.546Zm-1.818,-10c-0,-1.004 -0.815,-1.818 -1.818,-1.818c-1.004,-0 -1.819,0.814 -1.819,1.818c0,1.004 0.815,1.818 1.819,1.818c1.003,-0 1.818,-0.814 1.818,-1.818Zm10,-4.546l-0,-2.727l-1.818,0l-0,2.727l-2.728,0l0,1.818l2.728,0l-0,2.728l1.818,-0l-0,-2.728l2.727,0l-0,-1.818l-2.727,0Z"/></g><rect x="-8.266" y="-0.211" width="24" height="24" style="fill:none;fill-rule:nonzero;"/></g></svg>