<?xml version="1.0" encoding="UTF-8" standalone="no"?><!DOCTYPE svg PUBLIC "-//W3C//DTD SVG 1.1//EN" "http://www.w3.org/Graphics/SVG/1.1/DTD/svg11.dtd"><svg width="100%" height="100%" viewBox="0 0 24 24" version="1.1" xmlns="http://www.w3.org/2000/svg" xmlns:xlink="http://www.w3.org/1999/xlink" xml:space="preserve" xmlns:serif="http://www.serif.com/" style="fill-rule:evenodd;clip-rule:evenodd;stroke-linejoin:round;stroke-miterlimit:2;"><rect id="Filled" x="0" y="0" width="24" height="24" style="fill:none;"/><g id="Filled1" serif:id="Filled"><g id="Context"><path id="archive_thread" d="M20,2l-16,0c-1,0 -2,0.9 -2,2l0,3.01c0,0.72 0.43,1.34 1,1.69l0,11.3c0,1.1 1.1,2 2,2l14,0c0.9,0 2,-0.9 2,-2l0,-11.3c0.57,-0.35 1,-0.97 1,-1.69l0,-3.01c0,-1.1 -1,-2 -2,-2Zm-6,12l-4,0c-0.55,0 -1,-0.45 -1,-1c0,-0.55 0.45,-1 1,-1l4,0c0.55,0 1,0.45 1,1c0,0.55 -0.45,1 -1,1Zm6,-7l-16,0l0,-3l16,0l0,3Z" style="fill-rule:nonzero;"/></g></g></svg>