<?xml version="1.0" encoding="UTF-8" standalone="no"?><!DOCTYPE svg PUBLIC "-//W3C//DTD SVG 1.1//EN" "http://www.w3.org/Graphics/SVG/1.1/DTD/svg11.dtd"><svg width="100%" height="100%" viewBox="0 0 24 24" version="1.1" xmlns="http://www.w3.org/2000/svg" xmlns:xlink="http://www.w3.org/1999/xlink" xml:space="preserve" xmlns:serif="http://www.serif.com/" style="fill-rule:evenodd;clip-rule:evenodd;stroke-linejoin:round;stroke-miterlimit:2;"><rect id="Filled" x="0" y="0" width="24" height="24" style="fill:none;"/><g id="Filled1" serif:id="Filled"><g id="Context"><path id="auto-archive" d="M12,6.172l0,1.738c0,0.438 0.525,0.651 0.826,0.34l2.71,-2.71c0.194,-0.194 0.194,-0.495 -0,-0.689l-2.71,-2.711c-0.301,-0.301 -0.826,-0.087 -0.826,0.35l0,1.739c-4.293,-0 -7.771,3.477 -7.771,7.771c0,1.01 0.194,1.981 0.554,2.865c0.262,0.651 1.097,0.826 1.593,0.331c0.262,-0.263 0.369,-0.661 0.223,-1.011c-0.281,-0.67 -0.427,-1.418 -0.427,-2.185c-0,-3.215 2.613,-5.828 5.828,-5.828Zm5.624,2.632c-0.262,0.262 -0.369,0.67 -0.223,1.01c0.272,0.68 0.427,1.418 0.427,2.186c0,3.215 -2.613,5.828 -5.828,5.828l0,-1.739c0,-0.437 -0.525,-0.651 -0.826,-0.34l-2.71,2.71c-0.194,0.195 -0.194,0.496 0,0.69l2.71,2.71c0.301,0.301 0.826,0.088 0.826,-0.34l-0,-1.748c4.293,-0 7.771,-3.478 7.771,-7.771c-0,-1.01 -0.194,-1.982 -0.554,-2.866c-0.262,-0.651 -1.097,-0.825 -1.593,-0.33Z" style="fill-rule:nonzero;"/></g></g></svg>