<?xml version="1.0" encoding="UTF-8" standalone="no"?><!DOCTYPE svg PUBLIC "-//W3C//DTD SVG 1.1//EN" "http://www.w3.org/Graphics/SVG/1.1/DTD/svg11.dtd"><svg width="100%" height="100%" viewBox="0 0 24 24" version="1.1" xmlns="http://www.w3.org/2000/svg" xmlns:xlink="http://www.w3.org/1999/xlink" xml:space="preserve" xmlns:serif="http://www.serif.com/" style="fill-rule:evenodd;clip-rule:evenodd;stroke-linejoin:round;stroke-miterlimit:2;"><rect id="Filled" x="0" y="0" width="24" height="24" style="fill:none;"/><g id="Filled1" serif:id="Filled"><g id="Context"><path id="ban" d="M12,2c-5.52,0 -10,4.48 -10,10c0,5.52 4.48,10 10,10c5.52,0 10,-4.48 10,-10c0,-5.52 -4.48,-10 -10,-10Zm0,13c-2.32,0 -4.45,0.8 -6.14,2.12c-1.16,-1.39 -1.86,-3.17 -1.86,-5.12c0,-1.85 0.63,-3.55 1.69,-4.9l2.86,2.86c0.21,1.56 1.43,2.79 2.99,2.99l2.2,2.2c-0.57,-0.1 -1.15,-0.15 -1.74,-0.15Zm6.31,1.9l-11.21,-11.21c1.35,-1.06 3.05,-1.69 4.9,-1.69c4.42,0 8,3.58 8,8c0,1.85 -0.63,3.54 -1.69,4.9Zm-3.13,-5.96c0.2,-0.44 0.32,-0.92 0.32,-1.44c0,-1.93 -1.57,-3.5 -3.5,-3.5c-0.52,0 -1,0.12 -1.44,0.32l4.62,4.62Z" style="fill-rule:nonzero;"/></g></g></svg>