<?xml version="1.0" encoding="UTF-8" standalone="no"?><!DOCTYPE svg PUBLIC "-//W3C//DTD SVG 1.1//EN" "http://www.w3.org/Graphics/SVG/1.1/DTD/svg11.dtd"><svg width="100%" height="100%" viewBox="0 0 24 24" version="1.1" xmlns="http://www.w3.org/2000/svg" xmlns:xlink="http://www.w3.org/1999/xlink" xml:space="preserve" xmlns:serif="http://www.serif.com/" style="fill-rule:evenodd;clip-rule:evenodd;stroke-linejoin:round;stroke-miterlimit:2;"><rect id="Filled" x="0" y="0" width="24" height="24" style="fill:none;"/><g id="Filled1" serif:id="Filled"><g id="Context"><path id="block" d="M12,2c-5.52,0 -10,4.48 -10,10c0,5.52 4.48,10 10,10c5.52,0 10,-4.48 10,-10c0,-5.52 -4.48,-10 -10,-10Zm-8,10c0,-4.42 3.58,-8 8,-8c1.85,0 3.55,0.63 4.9,1.69l-11.21,11.21c-1.06,-1.35 -1.69,-3.05 -1.69,-4.9Zm8,8c-1.85,0 -3.55,-0.63 -4.9,-1.69l11.21,-11.21c1.06,1.35 1.69,3.05 1.69,4.9c0,4.42 -3.58,8 -8,8Z" style="fill-rule:nonzero;"/></g></g></svg>