<?xml version="1.0" encoding="UTF-8" standalone="no"?><!DOCTYPE svg PUBLIC "-//W3C//DTD SVG 1.1//EN" "http://www.w3.org/Graphics/SVG/1.1/DTD/svg11.dtd"><svg width="100%" height="100%" viewBox="0 0 24 24" version="1.1" xmlns="http://www.w3.org/2000/svg" xmlns:xlink="http://www.w3.org/1999/xlink" xml:space="preserve" xmlns:serif="http://www.serif.com/" style="fill-rule:evenodd;clip-rule:evenodd;stroke-linejoin:round;stroke-miterlimit:2;"><rect id="Filled" x="0" y="0" width="24" height="24" style="fill:none;"/><g id="Filled1" serif:id="Filled"><g id="Context"><path id="call" d="M20.04,15.639l-2.827,-0.323c-0.68,-0.078 -1.348,0.156 -1.826,0.634l-2.049,2.049c-3.151,-1.603 -5.734,-4.175 -7.337,-7.337l2.06,-2.06c0.479,-0.479 0.712,-1.147 0.634,-1.826l-0.323,-2.805c-0.133,-1.125 -1.079,-1.971 -2.215,-1.971l-1.926,-0c-1.258,-0 -2.305,1.047 -2.227,2.305c0.59,9.508 8.194,17.101 17.691,17.691c1.258,0.078 2.305,-0.969 2.305,-2.227l0,-1.926c0.011,-1.124 -0.835,-2.071 -1.96,-2.204Z" style="fill-rule:nonzero;"/></g></g></svg>