<?xml version="1.0" encoding="UTF-8" standalone="no"?><!DOCTYPE svg PUBLIC "-//W3C//DTD SVG 1.1//EN" "http://www.w3.org/Graphics/SVG/1.1/DTD/svg11.dtd"><svg width="100%" height="100%" viewBox="0 0 24 24" version="1.1" xmlns="http://www.w3.org/2000/svg" xmlns:xlink="http://www.w3.org/1999/xlink" xml:space="preserve" xmlns:serif="http://www.serif.com/" style="fill-rule:evenodd;clip-rule:evenodd;stroke-linejoin:round;stroke-miterlimit:2;"><rect id="Filled" x="0" y="0" width="24" height="24" style="fill:none;"/><g id="Filled1" serif:id="Filled"><g id="Context"><path id="edit" d="M2,18.067l0,3.378c0,0.311 0.244,0.555 0.555,0.555l3.378,-0c0.144,-0 0.289,-0.056 0.389,-0.167c-0,0 10.024,-10.015 11.848,-11.837c0.075,-0.075 0.117,-0.177 0.117,-0.283c0,-0.106 -0.042,-0.208 -0.117,-0.283c-0.76,-0.76 -2.84,-2.84 -3.6,-3.6c-0.156,-0.157 -0.409,-0.157 -0.566,-0c-1.822,1.822 -11.837,11.837 -11.837,11.837c-0.111,0.111 -0.167,0.245 -0.167,0.4Zm19.675,-11.576c0.433,-0.433 0.433,-1.133 0,-1.566l-2.6,-2.6c-0.433,-0.433 -1.133,-0.433 -1.566,-0c-0,-0 -1.192,1.191 -1.75,1.75c-0.075,0.075 -0.117,0.177 -0.117,0.283c-0,0.106 0.042,0.208 0.117,0.283c0.76,0.76 2.84,2.84 3.6,3.6c0.075,0.075 0.177,0.117 0.283,0.117c0.106,0 0.208,-0.042 0.283,-0.117c0.559,-0.558 1.75,-1.75 1.75,-1.75Z" style="fill-rule:nonzero;"/></g></g></svg>