<?xml version="1.0" encoding="UTF-8" standalone="no"?><!DOCTYPE svg PUBLIC "-//W3C//DTD SVG 1.1//EN" "http://www.w3.org/Graphics/SVG/1.1/DTD/svg11.dtd"><svg width="100%" height="100%" viewBox="0 0 24 24" version="1.1" xmlns="http://www.w3.org/2000/svg" xmlns:xlink="http://www.w3.org/1999/xlink" xml:space="preserve" xmlns:serif="http://www.serif.com/" style="fill-rule:evenodd;clip-rule:evenodd;stroke-linejoin:round;stroke-miterlimit:2;"><rect id="Filled" x="0" y="0" width="24" height="24" style="fill:none;"/><clipPath id="_clip1"><rect id="Filled1" serif:id="Filled" x="0" y="0" width="24" height="24"/></clipPath><g clip-path="url(#_clip1)"><g id="Context"></g><rect x="-8.266" y="-0.211" width="24" height="24" style="fill:none;fill-rule:nonzero;"/><path d="M20.968,5.158l-2.126,-0l0,-2.126c0,-0.569 -0.463,-1.032 -1.031,-1.032l-0.032,-0c-0.579,-0 -1.042,0.463 -1.042,1.032l-0,2.126l-2.116,-0c-0.568,-0 -1.032,0.463 -1.042,1.031l-0,0.032c-0,0.579 0.463,1.042 1.042,1.042l2.116,0l-0,2.116c-0,0.568 0.463,1.042 1.042,1.032l0.032,-0c0.568,-0 1.031,-0.464 1.031,-1.032l0,-2.116l2.126,0c0.569,0 1.032,-0.463 1.032,-1.031l-0,-0.043c-0,-0.568 -0.463,-1.031 -1.032,-1.031Zm-5.284,4.221l0,-1.063l-1.063,-0c-0.558,-0 -1.084,-0.221 -1.484,-0.611c-0.39,-0.4 -0.611,-0.926 -0.611,-1.516c0,-0.378 0.106,-0.726 0.285,-1.031l-8.706,-0c-1.158,-0 -2.105,0.947 -2.105,2.105l-0,12.632c-0,1.158 0.947,2.105 2.105,2.105l12.632,-0c1.158,-0 2.105,-0.947 2.105,-2.105l0,-8.716c-0.316,0.179 -0.674,0.295 -1.074,0.295c-1.147,-0.011 -2.084,-0.948 -2.084,-2.095Zm-0.042,10.516l-10.484,-0c-0.432,-0 -0.684,-0.495 -0.421,-0.842l2.084,-2.769c0.221,-0.295 0.653,-0.273 0.863,0.021l1.684,2.537l2.748,-3.663c0.21,-0.274 0.621,-0.284 0.831,-0.011l3.106,3.874c0.273,0.347 0.031,0.853 -0.411,0.853Z" style="fill-rule:nonzero;"/></g></svg>