<?xml version="1.0" encoding="UTF-8" standalone="no"?><!DOCTYPE svg PUBLIC "-//W3C//DTD SVG 1.1//EN" "http://www.w3.org/Graphics/SVG/1.1/DTD/svg11.dtd"><svg width="100%" height="100%" viewBox="0 0 24 24" version="1.1" xmlns="http://www.w3.org/2000/svg" xmlns:xlink="http://www.w3.org/1999/xlink" xml:space="preserve" xmlns:serif="http://www.serif.com/" style="fill-rule:evenodd;clip-rule:evenodd;stroke-linejoin:round;stroke-miterlimit:2;"><rect id="Filled" x="0" y="0" width="24" height="24" style="fill:none;"/><g id="Filled1" serif:id="Filled"><g id="Context"><path id="clone" d="M18.5,2l-9,-0c-1.1,-0 -2,0.9 -2,2l-0,12c-0,1.1 0.9,2 2,2l9,0c1.1,0 2,-0.9 2,-2l0,-12c0,-1.1 -0.9,-2 -2,-2Zm0,14l-9,0l-0,-12l9,-0l0,12Zm-15,-1l-0,-2l2,0l-0,2l-2,0Zm-0,-5.5l2,-0l-0,2l-2,-0l-0,-2Zm7,10.5l2,0l0,2l-2,0l-0,-2Zm-7,-1.5l-0,-2l2,0l-0,2l-2,0Zm2,3.5c-1.1,0 -2,-0.9 -2,-2l2,0l-0,2Zm3.5,0l-2,0l-0,-2l2,0l-0,2Zm5,0l0,-2l2,0c0,1.1 -0.9,2 -2,2Zm-8.5,-16l-0,2l-2,-0c-0,-1.1 0.9,-2 2,-2Z" style="fill-rule:nonzero;"/></g></g></svg>