<?xml version="1.0" encoding="UTF-8" standalone="no"?><!DOCTYPE svg PUBLIC "-//W3C//DTD SVG 1.1//EN" "http://www.w3.org/Graphics/SVG/1.1/DTD/svg11.dtd"><svg width="100%" height="100%" viewBox="0 0 24 24" version="1.1" xmlns="http://www.w3.org/2000/svg" xmlns:xlink="http://www.w3.org/1999/xlink" xml:space="preserve" xmlns:serif="http://www.serif.com/" style="fill-rule:evenodd;clip-rule:evenodd;stroke-linejoin:round;stroke-miterlimit:2;"><rect id="Filled" x="0" y="0" width="24" height="24" style="fill:none;"/><g id="Filled1" serif:id="Filled"><g id="Context"><path d="M20.601,3.413c-0.533,-0.532 -1.393,-0.532 -1.925,-0l-6.676,6.662l-6.676,-6.676c-0.532,-0.532 -1.392,-0.532 -1.925,0c-0.532,0.533 -0.532,1.393 0,1.925l6.676,6.676l-6.676,6.676c-0.532,0.532 -0.532,1.392 0,1.925c0.533,0.532 1.393,0.532 1.925,-0l6.676,-6.676l6.676,6.676c0.532,0.532 1.392,0.532 1.925,-0c0.532,-0.533 0.532,-1.393 -0,-1.925l-6.676,-6.676l6.676,-6.676c0.518,-0.519 0.518,-1.392 -0,-1.911Z" style="fill-rule:nonzero;"/></g></g></svg>