<?xml version="1.0" encoding="UTF-8" standalone="no"?><!DOCTYPE svg PUBLIC "-//W3C//DTD SVG 1.1//EN" "http://www.w3.org/Graphics/SVG/1.1/DTD/svg11.dtd"><svg width="100%" height="100%" viewBox="0 0 24 24" version="1.1" xmlns="http://www.w3.org/2000/svg" xmlns:xlink="http://www.w3.org/1999/xlink" xml:space="preserve" xmlns:serif="http://www.serif.com/" style="fill-rule:evenodd;clip-rule:evenodd;stroke-linejoin:round;stroke-miterlimit:2;"><rect id="Filled" x="0" y="0" width="24" height="24" style="fill:none;"/><g id="Filled1" serif:id="Filled"><g id="Context"></g><path d="M6.522,20.587c0.551,0.551 1.44,0.551 1.991,0l3.486,-3.486l3.487,3.486c0.55,0.551 1.439,0.551 1.99,0c0.55,-0.55 0.55,-1.44 -0,-1.99l-4.475,-4.475c-0.55,-0.55 -1.439,-0.55 -1.99,0l-4.474,4.475c-0.565,0.536 -0.565,1.44 -0.015,1.99Z" style="fill-rule:nonzero;"/><path d="M17.478,3.413c-0.551,-0.551 -1.44,-0.551 -1.991,-0l-3.486,3.486l-3.487,-3.486c-0.55,-0.551 -1.439,-0.551 -1.99,-0c-0.55,0.55 -0.55,1.44 0,1.99l4.475,4.475c0.55,0.55 1.439,0.55 1.99,-0l4.474,-4.475c0.565,-0.536 0.565,-1.44 0.015,-1.99Z" style="fill-rule:nonzero;"/></g></svg>