<?xml version="1.0" encoding="UTF-8" standalone="no"?><!DOCTYPE svg PUBLIC "-//W3C//DTD SVG 1.1//EN" "http://www.w3.org/Graphics/SVG/1.1/DTD/svg11.dtd"><svg width="100%" height="100%" viewBox="0 0 24 24" version="1.1" xmlns="http://www.w3.org/2000/svg" xmlns:xlink="http://www.w3.org/1999/xlink" xml:space="preserve" xmlns:serif="http://www.serif.com/" style="fill-rule:evenodd;clip-rule:evenodd;stroke-linejoin:round;stroke-miterlimit:2;"><rect id="Filled" x="0" y="0" width="24" height="24" style="fill:none;"/><g id="Filled1" serif:id="Filled"><g id="Context"><path id="copy" d="M15.5,20l-10,0l0,-13c0,-0.55 -0.45,-1 -1,-1c-0.55,-0 -1,0.45 -1,1l0,13c0,1.1 0.9,2 2,2l10,0c0.55,0 1,-0.45 1,-1c0,-0.55 -0.45,-1 -1,-1Zm5,-4l0,-12c0,-1.1 -0.9,-2 -2,-2l-9,-0c-1.1,-0 -2,0.9 -2,2l0,12c0,1.1 0.9,2 2,2l9,0c1.1,0 2,-0.9 2,-2Zm-2,0l-9,0l0,-12l9,-0l0,12Z" style="fill-rule:nonzero;"/></g></g></svg>