<?xml version="1.0" encoding="UTF-8" standalone="no"?><!DOCTYPE svg PUBLIC "-//W3C//DTD SVG 1.1//EN" "http://www.w3.org/Graphics/SVG/1.1/DTD/svg11.dtd"><svg width="100%" height="100%" viewBox="0 0 24 24" version="1.1" xmlns="http://www.w3.org/2000/svg" xmlns:xlink="http://www.w3.org/1999/xlink" xml:space="preserve" xmlns:serif="http://www.serif.com/" style="fill-rule:evenodd;clip-rule:evenodd;stroke-linejoin:round;stroke-miterlimit:2;"><rect id="Filled" x="0" y="0" width="24" height="24" style="fill:none;"/><g id="Filled1" serif:id="Filled"><g id="Context"><path id="Copy_image" d="M22,19.778l0,-15.556c0,-1.222 -1,-2.222 -2.222,-2.222l-15.556,0c-1.222,0 -2.222,1 -2.222,2.222l0,15.556c0,1.222 1,2.222 2.222,2.222l15.556,0c1.222,0 2.222,-1 2.222,-2.222Zm-13.444,-5.578l2.333,2.811l3.444,-4.433c0.223,-0.289 0.667,-0.289 0.889,0.011l3.9,5.2c0.278,0.367 0.011,0.889 -0.444,0.889l-13.322,-0c-0.467,-0 -0.723,-0.534 -0.434,-0.9l2.767,-3.556c0.211,-0.289 0.633,-0.3 0.867,-0.022Z" style="fill-rule:nonzero;"/></g></g></svg>