<?xml version="1.0" encoding="UTF-8" standalone="no"?><!DOCTYPE svg PUBLIC "-//W3C//DTD SVG 1.1//EN" "http://www.w3.org/Graphics/SVG/1.1/DTD/svg11.dtd"><svg width="100%" height="100%" viewBox="0 0 24 24" version="1.1" xmlns="http://www.w3.org/2000/svg" xmlns:xlink="http://www.w3.org/1999/xlink" xml:space="preserve" xmlns:serif="http://www.serif.com/" style="fill-rule:evenodd;clip-rule:evenodd;stroke-linejoin:round;stroke-miterlimit:2;"><rect id="Filled" x="0" y="0" width="24" height="24" style="fill:none;"/><clipPath id="_clip1"><rect id="Filled1" serif:id="Filled" x="0" y="0" width="24" height="24"/></clipPath><g clip-path="url(#_clip1)"><g id="Context"><path id="threads" d="M12.622,11.637c-0.493,0 -0.893,0.4 -0.893,0.893l-0,5.863c-0,0.493 0.4,0.893 0.893,0.893l0.893,-0c0.124,-0 0.223,0.1 0.223,0.223l0,1.897c0,0.193 0.23,0.295 0.373,0.165l2.275,-2.055c0.164,-0.148 0.378,-0.23 0.599,-0.23l4.122,-0c0.493,-0 0.893,-0.4 0.893,-0.893l0,-5.863c0,-0.493 -0.4,-0.893 -0.893,-0.893l-8.485,0Zm-7.449,7.48c-0.07,0 -0.122,-0.063 -0.11,-0.131c-0,-0 0.454,-2.557 0.596,-3.355c0.01,-0.059 -0.006,-0.118 -0.044,-0.164c-0.038,-0.045 -0.094,-0.071 -0.153,-0.071c-0.802,-0 -3.35,-0 -3.35,-0c-0.07,-0 -0.122,-0.063 -0.11,-0.131l0.286,-1.638c0.01,-0.053 0.056,-0.092 0.11,-0.092l3.46,-0c0.097,-0 0.18,-0.07 0.197,-0.165c0.141,-0.797 0.75,-4.247 0.916,-5.182c0.01,-0.059 -0.006,-0.118 -0.044,-0.164c-0.038,-0.045 -0.094,-0.071 -0.153,-0.071c-0.802,-0 -3.351,-0 -3.351,-0c-0.069,-0 -0.121,-0.063 -0.109,-0.131l0.286,-1.637c0.009,-0.054 0.056,-0.093 0.11,-0.093l3.46,0c0.097,0 0.18,-0.069 0.197,-0.165c0.126,-0.709 0.615,-3.464 0.615,-3.464c0.009,-0.053 0.056,-0.092 0.11,-0.092l1.634,-0c0.069,-0 0.122,0.063 0.11,0.131c-0,-0 -0.454,2.557 -0.596,3.355c-0.01,0.058 0.006,0.118 0.044,0.164c0.038,0.045 0.094,0.071 0.153,0.071c0.94,0 4.375,0 5.176,0c0.097,0 0.18,-0.069 0.197,-0.165c0.126,-0.709 0.615,-3.464 0.615,-3.464c0.009,-0.053 0.055,-0.092 0.11,-0.092l1.633,-0c0.07,-0 0.123,0.063 0.11,0.131c0,-0 -0.453,2.557 -0.595,3.355c-0.01,0.058 0.006,0.118 0.044,0.164c0.038,0.045 0.094,0.071 0.153,0.071c0.802,0 3.35,0 3.35,0c0.069,0 0.122,0.063 0.11,0.131l-0.287,1.637c-0.009,0.054 -0.056,0.093 -0.11,0.093l-3.46,-0c-0.097,-0 -0.18,0.07 -0.197,0.165c-0.063,0.359 -0.213,1.208 -0.277,1.568c-0.016,0.095 -0.099,0.165 -0.197,0.165c-0.331,-0 -1.071,-0 -1.454,-0c-0.059,-0 -0.115,-0.026 -0.153,-0.072c-0.038,-0.045 -0.054,-0.105 -0.044,-0.163c0.065,-0.365 0.188,-1.064 0.253,-1.428c0.01,-0.059 -0.006,-0.118 -0.044,-0.164c-0.038,-0.045 -0.094,-0.071 -0.153,-0.071c-0.94,-0 -4.375,-0 -5.176,-0c-0.097,-0 -0.18,0.07 -0.197,0.165c-0.141,0.797 -0.75,4.247 -0.916,5.182c-0.01,0.058 0.006,0.118 0.044,0.164c0.038,0.045 0.094,0.071 0.153,0.071c0.409,-0 1.237,-0 1.618,-0c0.053,-0 0.104,0.021 0.141,0.059c0.038,0.037 0.059,0.088 0.059,0.141c-0,0.358 -0,1.103 -0,1.461c-0,0.11 -0.09,0.2 -0.2,0.2c-0.461,-0 -1.588,-0 -2.014,-0c-0.097,-0 -0.18,0.069 -0.197,0.165c-0.126,0.709 -0.615,3.464 -0.615,3.464c-0.01,0.053 -0.056,0.092 -0.11,0.092l-1.634,0Z" style="fill-rule:nonzero;"/></g><rect x="-8.266" y="-0.211" width="24" height="24" style="fill:none;fill-rule:nonzero;"/></g></svg>