<?xml version="1.0" encoding="UTF-8" standalone="no"?><!DOCTYPE svg PUBLIC "-//W3C//DTD SVG 1.1//EN" "http://www.w3.org/Graphics/SVG/1.1/DTD/svg11.dtd"><svg width="100%" height="100%" viewBox="0 0 24 24" version="1.1" xmlns="http://www.w3.org/2000/svg" xmlns:xlink="http://www.w3.org/1999/xlink" xml:space="preserve" xmlns:serif="http://www.serif.com/" style="fill-rule:evenodd;clip-rule:evenodd;stroke-linejoin:round;stroke-miterlimit:2;"><rect id="Filled" x="0" y="0" width="24" height="24" style="fill:none;"/><g id="Filled1" serif:id="Filled"><g id="Context"><path d="M19.714,13.286l-6.428,-0l-0,6.428c-0,0.707 -0.579,1.286 -1.286,1.286c-0.707,-0 -1.286,-0.579 -1.286,-1.286l0,-6.428l-6.428,-0c-0.707,-0 -1.286,-0.579 -1.286,-1.286c0,-0.707 0.579,-1.286 1.286,-1.286l6.428,0l0,-6.428c0,-0.707 0.579,-1.286 1.286,-1.286c0.707,0 1.286,0.579 1.286,1.286l-0,6.428l6.428,0c0.707,0 1.286,0.579 1.286,1.286c-0,0.707 -0.579,1.286 -1.286,1.286Z" style="fill-rule:nonzero;"/></g></g></svg>