<?xml version="1.0" encoding="UTF-8" standalone="no"?><!DOCTYPE svg PUBLIC "-//W3C//DTD SVG 1.1//EN" "http://www.w3.org/Graphics/SVG/1.1/DTD/svg11.dtd"><svg width="100%" height="100%" viewBox="0 0 24 24" version="1.1" xmlns="http://www.w3.org/2000/svg" xmlns:xlink="http://www.w3.org/1999/xlink" xml:space="preserve" xmlns:serif="http://www.serif.com/" style="fill-rule:evenodd;clip-rule:evenodd;stroke-linejoin:round;stroke-miterlimit:2;"><rect id="Filled" x="0" y="0" width="24" height="24" style="fill:none;"/><g id="Filled1" serif:id="Filled"><g id="Context"><path id="category_create" d="M17.906,12.918c2.259,-0 4.094,1.834 4.094,4.094c0,2.26 -1.835,4.094 -4.094,4.094c-2.26,0 -4.094,-1.834 -4.094,-4.094c-0,-2.26 1.834,-4.094 4.094,-4.094Zm0.566,3.517l-0,-1.131c-0,-0.312 -0.255,-0.566 -0.566,-0.566c-0.311,-0 -0.566,0.254 -0.566,0.566l0,1.131l-1.132,0c-0.311,0 -0.565,0.255 -0.565,0.566c-0,0.311 0.254,0.566 0.565,0.566l1.132,-0l0,1.131c0,0.311 0.255,0.566 0.566,0.566c0.311,0 0.566,-0.255 0.566,-0.566l-0,-1.131l1.131,-0c0.311,-0 0.566,-0.255 0.566,-0.566c0,-0.311 -0.255,-0.566 -0.566,-0.566l-1.131,0Zm-6.472,-1.142c0,-0.757 -0.62,-1.377 -1.378,-1.377l-7.244,-0c-0.758,-0 -1.378,0.62 -1.378,1.377c0,0.758 0.62,1.378 1.378,1.378l7.244,0c0.758,0 1.378,-0.62 1.378,-1.378Zm5,-5.51c0,0.757 -0.62,1.377 -1.378,1.377l-12.244,0c-0.758,0 -1.378,-0.62 -1.378,-1.377c0,-0.758 0.62,-1.378 1.378,-1.378l12.244,-0c0.758,-0 1.378,0.62 1.378,1.378Zm-15,-5.511c0,0.757 0.62,1.377 1.378,1.377l12.244,0c0.758,0 1.378,-0.62 1.378,-1.377c0,-0.758 -0.62,-1.378 -1.378,-1.378l-12.244,-0c-0.758,-0 -1.378,0.62 -1.378,1.378Z" style="fill-rule:nonzero;"/></g></g></svg>