<?xml version="1.0" encoding="UTF-8" standalone="no"?><!DOCTYPE svg PUBLIC "-//W3C//DTD SVG 1.1//EN" "http://www.w3.org/Graphics/SVG/1.1/DTD/svg11.dtd"><svg width="100%" height="100%" viewBox="0 0 24 24" version="1.1" xmlns="http://www.w3.org/2000/svg" xmlns:xlink="http://www.w3.org/1999/xlink" xml:space="preserve" xmlns:serif="http://www.serif.com/" style="fill-rule:evenodd;clip-rule:evenodd;stroke-linejoin:round;stroke-miterlimit:2;"><rect id="Filled" x="0" y="0" width="24" height="24" style="fill:none;"/><g id="Filled1" serif:id="Filled"><g id="Context"><path id="create_category" d="M20,6.5l-8,-0l-1.447,-1.894c-0.339,-0.678 -1.032,-1.106 -1.789,-1.106l-5.764,-0c-0.553,-0 -1,0.447 -1,1l-0,14c-0,1.104 0.895,2 2,2l16,0c1.104,0 2,-0.896 2,-2l0,-10c0,-1.104 -0.896,-2 -2,-2Zm-4,8l-3,-0l0,3l-2,0l0,-3l-3,-0l0,-2l3,-0l0,-3l2,-0l0,3l3,-0l0,2Z" style="fill-rule:nonzero;"/></g></g></svg>