<?xml version="1.0" encoding="UTF-8" standalone="no"?><!DOCTYPE svg PUBLIC "-//W3C//DTD SVG 1.1//EN" "http://www.w3.org/Graphics/SVG/1.1/DTD/svg11.dtd"><svg width="100%" height="100%" viewBox="0 0 24 24" version="1.1" xmlns="http://www.w3.org/2000/svg" xmlns:xlink="http://www.w3.org/1999/xlink" xml:space="preserve" xmlns:serif="http://www.serif.com/" style="fill-rule:evenodd;clip-rule:evenodd;stroke-linejoin:round;stroke-miterlimit:2;"><rect id="Filled" x="0" y="0" width="24" height="24" style="fill:none;"/><g id="Filled1" serif:id="Filled"><g id="Context"><path id="cut" d="M9.637,7.643c0.29,-0.619 0.42,-1.329 0.34,-2.088c-0.19,-1.729 -1.539,-3.198 -3.258,-3.488c-2.768,-0.48 -5.137,1.889 -4.657,4.647c0.3,1.719 1.759,3.068 3.488,3.258c0.759,0.08 1.459,-0.05 2.088,-0.34l2.359,2.368l-2.359,2.359c-0.619,-0.29 -1.329,-0.42 -2.088,-0.34c-1.729,0.19 -3.198,1.539 -3.488,3.258c-0.48,2.768 1.889,5.126 4.647,4.646c1.719,-0.299 3.068,-1.758 3.258,-3.487c0.08,-0.76 -0.05,-1.459 -0.34,-2.089l2.368,-2.348l7.585,7.585c0.89,0.889 2.409,0.259 2.409,-1l-0,-0.01c-0,-0.369 -0.15,-0.729 -0.41,-0.999l-11.942,-11.932Zm-3.638,0.36c-1.099,-0 -1.998,-0.889 -1.998,-1.999c-0,-1.109 0.899,-1.998 1.998,-1.998c1.1,-0 1.999,0.889 1.999,1.998c0,1.11 -0.899,1.999 -1.999,1.999Zm0,11.992c-1.099,-0 -1.998,-0.89 -1.998,-1.999c-0,-1.109 0.899,-1.999 1.998,-1.999c1.1,0 1.999,0.89 1.999,1.999c0,1.109 -0.899,1.999 -1.999,1.999Zm5.996,-7.495c-0.279,-0 -0.499,-0.22 -0.499,-0.5c-0,-0.28 0.22,-0.499 0.499,-0.499c0.28,-0 0.5,0.219 0.5,0.499c0,0.28 -0.22,0.5 -0.5,0.5Zm7.585,-10.083l-6.585,6.585l1.998,1.999l6.586,-6.586c0.26,-0.259 0.41,-0.619 0.41,-0.999l-0,-0.01c-0,-1.249 -1.519,-1.879 -2.409,-0.989Z" style="fill-rule:nonzero;"/></g></g></svg>