<?xml version="1.0" encoding="UTF-8" standalone="no"?><!DOCTYPE svg PUBLIC "-//W3C//DTD SVG 1.1//EN" "http://www.w3.org/Graphics/SVG/1.1/DTD/svg11.dtd"><svg width="100%" height="100%" viewBox="0 0 24 24" version="1.1" xmlns="http://www.w3.org/2000/svg" xmlns:xlink="http://www.w3.org/1999/xlink" xml:space="preserve" xmlns:serif="http://www.serif.com/" style="fill-rule:evenodd;clip-rule:evenodd;stroke-linejoin:round;stroke-miterlimit:2;"><rect id="Filled" x="0" y="0" width="24" height="24" style="fill:none;"/><g id="Filled1" serif:id="Filled"><g id="Context"><path id="delete" d="M5,6.999l0,12c0,1.102 0.897,2 2,2l10,-0c1.103,-0 2,-0.898 2,-2l0,-12l-14,0Zm6,10.001l-2,0l0,-6l2,0l0,6Zm4,0l-2,0l0,-6l2,0l0,6Zm0,-13.001l0,-1.999l-6,-0l0,1.999l-6,-0l0,2l18,-0l0,-2l-6,-0Z" style="fill-rule:nonzero;"/></g></g></svg>