<?xml version="1.0" encoding="UTF-8" standalone="no"?><!DOCTYPE svg PUBLIC "-//W3C//DTD SVG 1.1//EN" "http://www.w3.org/Graphics/SVG/1.1/DTD/svg11.dtd"><svg width="100%" height="100%" viewBox="0 0 24 24" version="1.1" xmlns="http://www.w3.org/2000/svg" xmlns:xlink="http://www.w3.org/1999/xlink" xml:space="preserve" xmlns:serif="http://www.serif.com/" style="fill-rule:evenodd;clip-rule:evenodd;stroke-linejoin:round;stroke-miterlimit:2;"><rect id="Filled" x="0" y="0" width="24" height="24" style="fill:none;"/><clipPath id="_clip1"><rect id="Filled1" serif:id="Filled" x="0" y="0" width="24" height="24"/></clipPath><g clip-path="url(#_clip1)"><g id="Context"><rect x="-2.768" y="7.481" width="24" height="24" style="fill:none;fill-rule:nonzero;"/><path id="delete" d="M5.333,19.778c0,1.222 1,2.222 2.223,2.222l8.888,-0c1.223,-0 2.223,-1 2.223,-2.222l-0,-11.111c-0,-1.223 -1,-2.223 -2.223,-2.223l-8.888,0c-1.223,0 -2.223,1 -2.223,2.223l0,11.111Zm13.334,-16.667l-2.778,0l-0.789,-0.789c-0.2,-0.2 -0.489,-0.322 -0.778,-0.322l-4.644,0c-0.289,0 -0.578,0.122 -0.778,0.322l-0.789,0.789l-2.778,0c-0.611,0 -1.111,0.5 -1.111,1.111c0,0.611 0.5,1.111 1.111,1.111l13.334,0c0.611,0 1.111,-0.5 1.111,-1.111c-0,-0.611 -0.5,-1.111 -1.111,-1.111Z" style="fill-rule:nonzero;"/></g></g></svg>