<?xml version="1.0" encoding="UTF-8" standalone="no"?><!DOCTYPE svg PUBLIC "-//W3C//DTD SVG 1.1//EN" "http://www.w3.org/Graphics/SVG/1.1/DTD/svg11.dtd"><svg width="100%" height="100%" viewBox="0 0 24 24" version="1.1" xmlns="http://www.w3.org/2000/svg" xmlns:xlink="http://www.w3.org/1999/xlink" xml:space="preserve" xmlns:serif="http://www.serif.com/" style="fill-rule:evenodd;clip-rule:evenodd;stroke-linejoin:round;stroke-miterlimit:2;"><rect id="Filled" x="0" y="0" width="24" height="24" style="fill:none;"/><g id="Filled1" serif:id="Filled"><g id="Context"><path id="discord" d="M18.931,5.641c-1.275,-0.584 -2.642,-1.015 -4.071,-1.262c-0.026,-0.005 -0.052,0.007 -0.066,0.031c-0.175,0.312 -0.37,0.72 -0.506,1.041c-1.538,-0.23 -3.067,-0.23 -4.573,-0c-0.136,-0.328 -0.338,-0.729 -0.515,-1.041c-0.013,-0.023 -0.039,-0.035 -0.065,-0.031c-1.428,0.246 -2.795,0.677 -4.071,1.262c-0.011,0.005 -0.02,0.013 -0.027,0.023c-2.593,3.874 -3.303,7.653 -2.954,11.384c0.001,0.018 0.011,0.036 0.026,0.047c1.71,1.256 3.367,2.019 4.994,2.524c0.026,0.008 0.053,-0.001 0.07,-0.023c0.385,-0.525 0.728,-1.079 1.022,-1.661c0.017,-0.035 0,-0.075 -0.035,-0.089c-0.544,-0.206 -1.062,-0.457 -1.56,-0.743c-0.04,-0.023 -0.043,-0.079 -0.007,-0.106c0.105,-0.079 0.21,-0.161 0.31,-0.243c0.018,-0.015 0.044,-0.019 0.065,-0.009c3.273,1.494 6.817,1.494 10.051,-0c0.021,-0.01 0.047,-0.007 0.066,0.008c0.1,0.082 0.205,0.165 0.31,0.244c0.036,0.027 0.034,0.083 -0.005,0.106c-0.499,0.291 -1.017,0.537 -1.561,0.743c-0.036,0.013 -0.051,0.054 -0.034,0.089c0.3,0.581 0.643,1.135 1.021,1.661c0.016,0.022 0.044,0.031 0.07,0.023c1.634,-0.505 3.291,-1.268 5.002,-2.524c0.015,-0.011 0.024,-0.028 0.026,-0.046c0.417,-4.314 -0.699,-8.062 -2.957,-11.384c-0.006,-0.011 -0.015,-0.019 -0.026,-0.024Zm-10.248,9.135c-0.985,-0 -1.797,-0.905 -1.797,-2.016c-0,-1.111 0.796,-2.016 1.797,-2.016c1.009,0 1.814,0.913 1.798,2.016c-0,1.111 -0.796,2.016 -1.798,2.016Zm6.646,-0c-0.985,-0 -1.797,-0.905 -1.797,-2.016c-0,-1.111 0.796,-2.016 1.797,-2.016c1.009,0 1.813,0.913 1.797,2.016c0,1.111 -0.788,2.016 -1.797,2.016Z" style="fill-rule:nonzero;"/></g></g></svg>