<?xml version="1.0" encoding="UTF-8" standalone="no"?><!DOCTYPE svg PUBLIC "-//W3C//DTD SVG 1.1//EN" "http://www.w3.org/Graphics/SVG/1.1/DTD/svg11.dtd"><svg width="100%" height="100%" viewBox="0 0 24 24" version="1.1" xmlns="http://www.w3.org/2000/svg" xmlns:xlink="http://www.w3.org/1999/xlink" xml:space="preserve" xmlns:serif="http://www.serif.com/" style="fill-rule:evenodd;clip-rule:evenodd;stroke-linejoin:round;stroke-miterlimit:2;"><rect id="Filled" x="0" y="0" width="24" height="24" style="fill:none;"/><g id="Filled1" serif:id="Filled"><g id="Context"><path id="id" d="M5.384,4.365c0.221,-0 0.4,0.179 0.4,0.4c0,2.15 0,12.32 0,14.47c0,0.221 -0.179,0.4 -0.4,0.4c-0.727,0 -2.257,0 -2.984,0c-0.221,0 -0.4,-0.179 -0.4,-0.4c-0,-2.15 -0,-12.32 -0,-14.47c0,-0.221 0.179,-0.4 0.4,-0.4c0.727,-0 2.257,-0 2.984,-0Zm8.538,-0c5.312,-0 8.078,3.076 8.078,7.613c0,4.537 -2.833,7.657 -7.989,7.657l-4.956,0c-0.221,0 -0.4,-0.179 -0.4,-0.4c-0,-2.15 -0,-12.32 -0,-14.47c-0,-0.221 0.179,-0.4 0.4,-0.4c1.229,-0 4.867,-0 4.867,-0Zm-0.111,12.327c2.7,-0 4.382,-1.417 4.382,-4.692c0,-3.209 -1.792,-4.692 -4.382,-4.692l-0.972,0c-0.221,0 -0.4,0.179 -0.4,0.4c0,1.536 0,7.048 0,8.584c0,0.221 0.179,0.4 0.4,0.4c0.405,-0 0.972,-0 0.972,-0Z"/></g></g></svg>