<?xml version="1.0" encoding="UTF-8" standalone="no"?><!DOCTYPE svg PUBLIC "-//W3C//DTD SVG 1.1//EN" "http://www.w3.org/Graphics/SVG/1.1/DTD/svg11.dtd"><svg width="100%" height="100%" viewBox="0 0 24 24" version="1.1" xmlns="http://www.w3.org/2000/svg" xmlns:xlink="http://www.w3.org/1999/xlink" xml:space="preserve" xmlns:serif="http://www.serif.com/" style="fill-rule:evenodd;clip-rule:evenodd;stroke-linejoin:round;stroke-miterlimit:2;"><rect id="Filled" x="0" y="0" width="24" height="24" style="fill:none;"/><g id="Filled1" serif:id="Filled"><g id="Context"><path d="M20,4l-16,0c-1.1,0 -1.99,0.9 -1.99,2l-0.01,12c0,1.1 0.9,2 2,2l16,0c1.1,0 2,-0.9 2,-2l0,-12c0,-1.1 -0.9,-2 -2,-2Zm-0.4,4.25l-7.07,4.42c-0.32,0.2 -0.74,0.2 -1.06,0l-7.07,-4.42c-0.25,-0.16 -0.4,-0.43 -0.4,-0.72c0,-0.67 0.73,-1.07 1.3,-0.72l6.7,4.19l6.7,-4.19c0.57,-0.35 1.3,0.05 1.3,0.72c0,0.29 -0.15,0.56 -0.4,0.72Z" style="fill-rule:nonzero;"/></g></g></svg>