<?xml version="1.0" encoding="UTF-8" standalone="no"?><!DOCTYPE svg PUBLIC "-//W3C//DTD SVG 1.1//EN" "http://www.w3.org/Graphics/SVG/1.1/DTD/svg11.dtd"><svg width="100%" height="100%" viewBox="0 0 24 24" version="1.1" xmlns="http://www.w3.org/2000/svg" xmlns:xlink="http://www.w3.org/1999/xlink" xml:space="preserve" xmlns:serif="http://www.serif.com/" style="fill-rule:evenodd;clip-rule:evenodd;stroke-linejoin:round;stroke-miterlimit:2;"><rect id="Filled" x="0" y="0" width="24" height="24" style="fill:none;"/><g id="Filled1" serif:id="Filled"><g id="Context"><path id="add_server" d="M19.778,2l-15.556,0c-1.233,0 -2.222,1 -2.222,2.222l0,15.556c0,1.222 0.989,2.222 2.222,2.222l15.556,0c1.222,0 2.222,-1 2.222,-2.222l0,-15.556c0,-1.222 -1,-2.222 -2.222,-2.222Zm-3.334,11.111l-3.333,0l0,3.333c0,0.612 -0.5,1.112 -1.111,1.112c-0.611,-0 -1.111,-0.5 -1.111,-1.112l-0,-3.333l-3.333,0c-0.612,0 -1.112,-0.5 -1.112,-1.111c0,-0.611 0.5,-1.111 1.112,-1.111l3.333,-0l-0,-3.333c-0,-0.612 0.5,-1.112 1.111,-1.112c0.611,0 1.111,0.5 1.111,1.112l0,3.333l3.333,-0c0.612,-0 1.112,0.5 1.112,1.111c-0,0.611 -0.5,1.111 -1.112,1.111Z" style="fill-rule:nonzero;"/></g></g></svg>