<?xml version="1.0" encoding="UTF-8" standalone="no"?><!DOCTYPE svg PUBLIC "-//W3C//DTD SVG 1.1//EN" "http://www.w3.org/Graphics/SVG/1.1/DTD/svg11.dtd"><svg width="100%" height="100%" viewBox="0 0 24 24" version="1.1" xmlns="http://www.w3.org/2000/svg" xmlns:xlink="http://www.w3.org/1999/xlink" xml:space="preserve" xmlns:serif="http://www.serif.com/" style="fill-rule:evenodd;clip-rule:evenodd;stroke-linejoin:round;stroke-miterlimit:2;"><rect id="Filled" x="0" y="0" width="24" height="24" style="fill:none;"/><clipPath id="_clip1"><rect id="Filled1" serif:id="Filled" x="0" y="0" width="24" height="24"/></clipPath><g clip-path="url(#_clip1)"><g id="Context"><path id="Languages" d="M12.792,15.4c0.13,-0.334 0.047,-0.714 -0.213,-0.973l-1.936,-1.908l0.028,-0.028c1.612,-1.797 2.76,-3.863 3.437,-6.049l1.797,-0c0.5,-0 0.917,-0.417 0.917,-0.917l-0,-0.019c-0,-0.5 -0.417,-0.917 -0.917,-0.917l-5.568,0l0,-0.926c0,-0.51 -0.416,-0.927 -0.926,-0.927c-0.51,0 -0.926,0.417 -0.926,0.927l-0,0.926l-5.568,0c-0.5,0 -0.917,0.417 -0.917,0.917c-0,0.51 0.417,0.917 0.917,0.917l9.431,0c-0.621,1.797 -1.603,3.493 -2.937,4.975c-0.75,-0.825 -1.38,-1.723 -1.908,-2.668c-0.149,-0.269 -0.417,-0.435 -0.723,-0.435c-0.639,-0 -1.047,0.694 -0.732,1.25c0.584,1.047 1.297,2.047 2.131,2.974l-4.048,3.992c-0.371,0.362 -0.371,0.955 -0,1.316c0.361,0.361 0.945,0.361 1.315,-0l3.965,-3.974l1.871,1.871c0.473,0.472 1.279,0.296 1.51,-0.324Zm4.493,-5.253c-0.556,0 -1.056,0.343 -1.25,0.871l-3.4,9.079c-0.223,0.565 0.204,1.167 0.806,1.167c0.361,-0 0.685,-0.223 0.815,-0.565l0.824,-2.214l4.401,-0l0.833,2.214c0.13,0.333 0.454,0.565 0.816,0.565c0.602,-0 1.028,-0.602 0.815,-1.167l-3.4,-9.079c-0.204,-0.528 -0.704,-0.871 -1.26,-0.871Zm-1.501,6.485l1.501,-4.011l1.501,4.011l-3.002,-0Z" style="fill-rule:nonzero;"/></g><rect x="-3.691" y="-0.201" width="24" height="24" style="fill:none;fill-rule:nonzero;"/><rect x="-3.938" y="4.803" width="24" height="24" style="fill:none;fill-rule:nonzero;"/></g></svg>