<?xml version="1.0" encoding="UTF-8" standalone="no"?><!DOCTYPE svg PUBLIC "-//W3C//DTD SVG 1.1//EN" "http://www.w3.org/Graphics/SVG/1.1/DTD/svg11.dtd"><svg width="100%" height="100%" viewBox="0 0 24 24" version="1.1" xmlns="http://www.w3.org/2000/svg" xmlns:xlink="http://www.w3.org/1999/xlink" xml:space="preserve" xmlns:serif="http://www.serif.com/" style="fill-rule:evenodd;clip-rule:evenodd;stroke-linejoin:round;stroke-miterlimit:2;"><rect id="Filled" x="0" y="0" width="24" height="24" style="fill:none;"/><g id="Filled1" serif:id="Filled"><g id="Context"><path id="leave_server" d="M4.222,4.222l6.667,0c0.611,0 1.111,-0.5 1.111,-1.111c-0,-0.611 -0.5,-1.111 -1.111,-1.111l-6.667,-0c-1.222,-0 -2.222,1 -2.222,2.222l0,15.556c0,1.222 1,2.222 2.222,2.222l6.667,-0c0.611,-0 1.111,-0.5 1.111,-1.111c-0,-0.611 -0.5,-1.111 -1.111,-1.111l-6.667,-0l0,-15.556Zm17.389,7.389l-3.1,-3.1c-0.355,-0.355 -0.955,-0.111 -0.955,0.389l-0,1.989l-7.778,-0c-0.611,-0 -1.111,0.5 -1.111,1.111c-0,0.611 0.5,1.111 1.111,1.111l7.778,0l-0,1.989c-0,0.5 0.6,0.744 0.944,0.389l3.1,-3.1c0.222,-0.211 0.222,-0.567 0.011,-0.778Z" style="fill-rule:nonzero;"/></g></g></svg>