<?xml version="1.0" encoding="UTF-8" standalone="no"?><!DOCTYPE svg PUBLIC "-//W3C//DTD SVG 1.1//EN" "http://www.w3.org/Graphics/SVG/1.1/DTD/svg11.dtd"><svg width="100%" height="100%" viewBox="0 0 24 24" version="1.1" xmlns="http://www.w3.org/2000/svg" xmlns:xlink="http://www.w3.org/1999/xlink" xml:space="preserve" xmlns:serif="http://www.serif.com/" style="fill-rule:evenodd;clip-rule:evenodd;stroke-linejoin:round;stroke-miterlimit:2;"><rect id="Filled" x="0" y="0" width="24" height="24" style="fill:none;"/><g id="Filled1" serif:id="Filled"><g id="Context"><path d="M10.656,16.767c0.433,0.433 1.133,0.433 1.566,-0l3.989,-3.989c0.433,-0.434 0.433,-1.134 0,-1.567l-3.989,-3.989c-0.433,-0.433 -1.133,-0.433 -1.566,0c-0.434,0.434 -0.434,1.134 -0,1.567l2.088,2.1l-9.633,-0c-0.611,-0 -1.111,0.5 -1.111,1.111c0,0.611 0.5,1.111 1.111,1.111l9.633,0l-2.088,2.089c-0.434,0.433 -0.423,1.144 -0,1.567Zm9.122,-14.767l-15.556,0c-1.233,0 -2.222,1 -2.222,2.222l0,3.334c0,0.611 0.5,1.111 1.111,1.111c0.611,-0 1.111,-0.5 1.111,-1.111l0,-2.223c0,-0.611 0.5,-1.111 1.111,-1.111l13.334,0c0.611,0 1.111,0.5 1.111,1.111l-0,13.334c-0,0.611 -0.5,1.111 -1.111,1.111l-13.334,-0c-0.611,-0 -1.111,-0.5 -1.111,-1.111l0,-2.223c0,-0.611 -0.5,-1.111 -1.111,-1.111c-0.611,0 -1.111,0.5 -1.111,1.111l0,3.334c0,1.222 1,2.222 2.222,2.222l15.556,0c1.222,0 2.222,-1 2.222,-2.222l0,-15.556c0,-1.222 -1,-2.222 -2.222,-2.222Z" style="fill-rule:nonzero;"/></g></g></svg>