<?xml version="1.0" encoding="UTF-8" standalone="no"?><!DOCTYPE svg PUBLIC "-//W3C//DTD SVG 1.1//EN" "http://www.w3.org/Graphics/SVG/1.1/DTD/svg11.dtd"><svg width="100%" height="100%" viewBox="0 0 24 24" version="1.1" xmlns="http://www.w3.org/2000/svg" xmlns:xlink="http://www.w3.org/1999/xlink" xml:space="preserve" xmlns:serif="http://www.serif.com/" style="fill-rule:evenodd;clip-rule:evenodd;stroke-linejoin:round;stroke-miterlimit:2;"><rect id="Filled" x="0" y="0" width="24" height="24" style="fill:none;"/><g id="Filled1" serif:id="Filled"><g id="Context"><path id="listen_along" d="M16.945,20.032c-0.285,0 -0.551,-0.059 -0.747,-0.147c-0.699,-0.364 -1.191,-0.866 -1.683,-2.341c-0.501,-1.535 -1.446,-2.253 -2.351,-2.952c-0.777,-0.6 -1.584,-1.22 -2.282,-2.489c-0.521,-0.944 -0.807,-1.977 -0.807,-2.892c0,-2.755 2.164,-4.919 4.919,-4.919c2.518,0 4.555,1.82 4.87,4.24c0.059,0.394 0.403,0.679 0.806,0.679l0.335,0c0.492,0 0.875,-0.433 0.816,-0.925c-0.442,-3.413 -3.276,-5.961 -6.827,-5.961c-3.866,-0 -6.886,3.02 -6.886,6.886c-0,1.24 0.374,2.607 1.052,3.837c0.896,1.623 1.948,2.439 2.804,3.099c0.797,0.61 1.367,1.052 1.682,2.016c0.591,1.791 1.348,2.794 2.686,3.493c0.502,0.226 1.053,0.344 1.613,0.344c1.81,0 3.335,-1.22 3.798,-2.882c0.137,-0.532 -0.246,-1.053 -0.797,-1.053l-0.344,-0c-0.374,-0 -0.669,0.266 -0.797,0.62c-0.256,0.777 -0.994,1.347 -1.86,1.347Zm-9.867,-17.737c-0.423,-0.423 -1.102,-0.384 -1.475,0.069c-1.515,1.869 -2.43,4.25 -2.43,6.847c-0,2.597 0.915,4.978 2.43,6.837c0.373,0.453 1.052,0.492 1.465,0.079c0.354,-0.354 0.384,-0.915 0.069,-1.299c-1.239,-1.524 -1.997,-3.482 -1.997,-5.617c0,-2.135 0.758,-4.092 2.007,-5.607c0.325,-0.394 0.285,-0.955 -0.069,-1.309Zm4.457,6.916c-0,1.358 1.101,2.459 2.459,2.459c1.358,0 2.459,-1.101 2.459,-2.459c0,-1.358 -1.101,-2.459 -2.459,-2.459c-1.358,-0 -2.459,1.101 -2.459,2.459Z" style="fill-rule:nonzero;"/></g></g></svg>