<?xml version="1.0" encoding="UTF-8" standalone="no"?><!DOCTYPE svg PUBLIC "-//W3C//DTD SVG 1.1//EN" "http://www.w3.org/Graphics/SVG/1.1/DTD/svg11.dtd"><svg width="100%" height="100%" viewBox="0 0 24 24" version="1.1" xmlns="http://www.w3.org/2000/svg" xmlns:xlink="http://www.w3.org/1999/xlink" xml:space="preserve" xmlns:serif="http://www.serif.com/" style="fill-rule:evenodd;clip-rule:evenodd;stroke-linejoin:round;stroke-miterlimit:2;"><rect id="Filled" x="0" y="0" width="24" height="24" style="fill:none;"/><g id="Filled1" serif:id="Filled"><g id="Context"><path id="mention" d="M12.718,2.026c-6.091,-0.43 -11.122,4.601 -10.692,10.692c0.36,5.291 4.981,9.282 10.282,9.282l3.691,0c0.55,0 1,-0.45 1,-1c-0,-0.55 -0.45,-1 -1,-1l-3.671,-0c-3.731,-0 -7.152,-2.421 -8.082,-6.032c-1.49,-5.801 3.911,-11.212 9.712,-9.712c3.621,0.92 6.042,4.341 6.042,8.072l-0,1.1c-0,0.79 -0.711,1.57 -1.501,1.57c-0.79,0 -1.5,-0.78 -1.5,-1.57l-0,-1.25c-0,-2.511 -1.78,-4.771 -4.261,-5.121c-3.401,-0.49 -6.271,2.45 -5.661,5.871c0.34,1.91 1.83,3.491 3.721,3.941c1.84,0.43 3.59,-0.16 4.741,-1.33c0.89,1.22 2.67,1.86 4.301,1.21c1.34,-0.53 2.16,-1.901 2.16,-3.341l0,-1.09c0,-5.311 -3.991,-9.932 -9.282,-10.292Zm-0.72,12.972c-1.661,0 -3.001,-1.34 -3.001,-3c0,-1.661 1.34,-3.001 3.001,-3.001c1.66,0 3,1.34 3,3.001c0,1.66 -1.34,3 -3,3Z" style="fill-rule:nonzero;"/></g></g></svg>