<?xml version="1.0" encoding="UTF-8" standalone="no"?><!DOCTYPE svg PUBLIC "-//W3C//DTD SVG 1.1//EN" "http://www.w3.org/Graphics/SVG/1.1/DTD/svg11.dtd"><svg width="100%" height="100%" viewBox="0 0 24 24" version="1.1" xmlns="http://www.w3.org/2000/svg" xmlns:xlink="http://www.w3.org/1999/xlink" xml:space="preserve" xmlns:serif="http://www.serif.com/" style="fill-rule:evenodd;clip-rule:evenodd;stroke-linejoin:round;stroke-miterlimit:2;"><rect id="Filled" x="0" y="0" width="24" height="24" style="fill:none;"/><g id="Filled1" serif:id="Filled"><g id="Context"><path id="message" d="M3.739,2.271c-0.96,0 -1.739,0.779 -1.739,1.74l0,11.415c0,0.961 0.779,1.739 1.739,1.739l1.739,0c0.24,0 0.435,0.195 0.435,0.435l0,3.693c0,0.377 0.447,0.575 0.726,0.322l4.43,-4.001c0.319,-0.289 0.735,-0.449 1.166,-0.449l8.026,0c0.96,0 1.739,-0.778 1.739,-1.739l0,-11.415c0,-0.961 -0.779,-1.74 -1.739,-1.74l-16.522,0Z" style="fill-rule:nonzero;"/></g></g></svg>