<?xml version="1.0" encoding="UTF-8" standalone="no"?><!DOCTYPE svg PUBLIC "-//W3C//DTD SVG 1.1//EN" "http://www.w3.org/Graphics/SVG/1.1/DTD/svg11.dtd"><svg width="100%" height="100%" viewBox="0 0 24 24" version="1.1" xmlns="http://www.w3.org/2000/svg" xmlns:xlink="http://www.w3.org/1999/xlink" xml:space="preserve" xmlns:serif="http://www.serif.com/" style="fill-rule:evenodd;clip-rule:evenodd;stroke-linejoin:round;stroke-miterlimit:2;"><rect id="Filled" x="0" y="0" width="24" height="24" style="fill:none;"/><g id="Filled1" serif:id="Filled"><g id="Context"><path d="M13.718,17.909c0.537,0.537 1.404,0.537 1.94,0l4.94,-4.939c0.536,-0.537 0.536,-1.403 -0,-1.94l-4.94,-4.939c-0.536,-0.537 -1.403,-0.537 -1.94,-0c-0.536,0.536 -0.536,1.403 0,1.94l2.587,2.6l-11.929,-0c-0.757,-0 -1.376,0.619 -1.376,1.376c0,0.757 0.619,1.376 1.376,1.376l11.929,-0l-2.587,2.586c-0.536,0.537 -0.523,1.418 0,1.94Z" style="fill-rule:nonzero;"/></g></g></svg>