<?xml version="1.0" encoding="UTF-8" standalone="no"?><!DOCTYPE svg PUBLIC "-//W3C//DTD SVG 1.1//EN" "http://www.w3.org/Graphics/SVG/1.1/DTD/svg11.dtd"><svg width="100%" height="100%" viewBox="0 0 24 24" version="1.1" xmlns="http://www.w3.org/2000/svg" xmlns:xlink="http://www.w3.org/1999/xlink" xml:space="preserve" xmlns:serif="http://www.serif.com/" style="fill-rule:evenodd;clip-rule:evenodd;stroke-linejoin:round;stroke-miterlimit:2;"><rect id="Filled" x="0" y="0" width="24" height="24" style="fill:none;"/><g id="Filled1" serif:id="Filled"><g id="Context"><path id="mute" d="M2.7,2.706c-0.433,0.433 -0.433,1.133 0,1.566l4.067,4.067l-0.323,0.333l-3.333,0c-0.611,0 -1.111,0.5 -1.111,1.111l0,4.445c0,0.611 0.5,1.111 1.111,1.111l3.333,-0l3.656,3.655c0.7,0.7 1.9,0.2 1.9,-0.788l0,-4.634l4.644,4.645c-0.544,0.411 -1.133,0.755 -1.777,1.011c-0.4,0.166 -0.645,0.589 -0.645,1.022c0,0.8 0.811,1.311 1.545,1.011c0.889,-0.367 1.722,-0.855 2.466,-1.455l1.489,1.488c0.434,0.434 1.134,0.434 1.567,0c0.433,-0.433 0.433,-1.133 -0,-1.566l-17.011,-17.022c-0.434,-0.434 -1.134,-0.434 -1.578,-0Zm17.078,9.3c-0,0.911 -0.167,1.788 -0.456,2.6l1.7,1.7c0.622,-1.3 0.978,-2.756 0.978,-4.3c0,-4.256 -2.667,-7.9 -6.422,-9.334c-0.656,-0.255 -1.356,0.256 -1.356,0.956l0,0.211c0,0.422 0.278,0.789 0.678,0.944c2.856,1.156 4.878,3.956 4.878,7.223Zm-9.678,-6.989l-0.189,0.189l2.089,2.088l0,-1.5c0,-0.988 -1.2,-1.477 -1.9,-0.777Zm6.9,6.989c0,-1.967 -1.133,-3.656 -2.778,-4.478l0,1.989l2.756,2.755c0.011,-0.089 0.022,-0.178 0.022,-0.266Z" style="fill-rule:nonzero;"/></g></g></svg>