<?xml version="1.0" encoding="UTF-8" standalone="no"?><!DOCTYPE svg PUBLIC "-//W3C//DTD SVG 1.1//EN" "http://www.w3.org/Graphics/SVG/1.1/DTD/svg11.dtd"><svg width="100%" height="100%" viewBox="0 0 24 24" version="1.1" xmlns="http://www.w3.org/2000/svg" xmlns:xlink="http://www.w3.org/1999/xlink" xml:space="preserve" xmlns:serif="http://www.serif.com/" style="fill-rule:evenodd;clip-rule:evenodd;stroke-linejoin:round;stroke-miterlimit:2;"><rect id="Filled" x="0" y="0" width="24" height="24" style="fill:none;"/><g id="Filled1" serif:id="Filled"><g id="Context"><path id="notification_settings" d="M18.085,15.8l-0,-5.067c-0,-3.111 -1.662,-5.716 -4.561,-6.405l0,-0.689c0,-0.841 -0.689,-1.52 -1.53,-1.52c-0.841,-0 -1.51,0.679 -1.51,1.52l-0,0.689c-2.909,0.689 -4.561,3.284 -4.561,6.405l0,5.067l-1.317,1.308c-0.639,0.638 -0.193,1.733 0.709,1.733l13.347,-0c0.902,-0 1.358,-1.095 0.72,-1.733l-1.297,-1.308Zm-6.091,6.081c1.115,0 2.027,-0.912 2.027,-2.027l-4.054,0c-0,1.115 0.902,2.027 2.027,2.027Zm-5.29,-17.502c0.425,-0.385 0.435,-1.044 0.03,-1.449c-0.385,-0.386 -1.014,-0.396 -1.409,-0.021c-1.733,1.581 -2.929,3.73 -3.314,6.142c-0.091,0.618 0.385,1.175 1.014,1.175c0.486,0 0.912,-0.354 0.993,-0.841c0.304,-1.966 1.277,-3.719 2.686,-5.006Zm11.989,-1.47c-0.406,-0.375 -1.034,-0.365 -1.419,0.021c-0.405,0.405 -0.385,1.054 0.03,1.439c1.399,1.287 2.382,3.04 2.686,5.006c0.071,0.487 0.497,0.841 0.993,0.841c0.618,0 1.105,-0.557 1.004,-1.175c-0.386,-2.402 -1.571,-4.541 -3.294,-6.132Z" style="fill-rule:nonzero;"/></g></g></svg>