<?xml version="1.0" encoding="UTF-8" standalone="no"?><!DOCTYPE svg PUBLIC "-//W3C//DTD SVG 1.1//EN" "http://www.w3.org/Graphics/SVG/1.1/DTD/svg11.dtd"><svg width="100%" height="100%" viewBox="0 0 24 24" version="1.1" xmlns="http://www.w3.org/2000/svg" xmlns:xlink="http://www.w3.org/1999/xlink" xml:space="preserve" xmlns:serif="http://www.serif.com/" style="fill-rule:evenodd;clip-rule:evenodd;stroke-linejoin:round;stroke-miterlimit:2;"><rect id="Filled" x="0" y="0" width="24" height="24" style="fill:none;"/><g id="Filled1" serif:id="Filled"><g id="Context"><path id="paste" d="M18.364,3.818l-3.8,0c-0.382,-1.054 -1.382,-1.818 -2.563,-1.818c-1.182,-0 -2.182,0.764 -2.564,1.818l-3.8,0c-1,0 -1.818,0.818 -1.818,1.818l-0,14.546c-0,1 0.818,1.818 1.818,1.818l12.727,0c1,0 1.818,-0.818 1.818,-1.818l0,-14.546c0,-1 -0.818,-1.818 -1.818,-1.818Zm-6.363,0c0.5,0 0.909,0.409 0.909,0.909c-0,0.5 -0.409,0.909 -0.909,0.909c-0.5,0 -0.91,-0.409 -0.91,-0.909c0,-0.5 0.41,-0.909 0.91,-0.909Zm5.454,16.364l-10.909,-0c-0.5,-0 -0.909,-0.409 -0.909,-0.909l-0,-12.728c-0,-0.5 0.409,-0.909 0.909,-0.909l0.909,0l0,0.909c0,1 0.818,1.819 1.818,1.819l5.455,-0c1,-0 1.818,-0.819 1.818,-1.819l-0,-0.909l0.909,0c0.5,0 0.909,0.409 0.909,0.909l0,12.728c0,0.5 -0.409,0.909 -0.909,0.909Z" style="fill-rule:nonzero;"/></g></g></svg>