<?xml version="1.0" encoding="UTF-8" standalone="no"?><!DOCTYPE svg PUBLIC "-//W3C//DTD SVG 1.1//EN" "http://www.w3.org/Graphics/SVG/1.1/DTD/svg11.dtd"><svg width="100%" height="100%" viewBox="0 0 24 24" version="1.1" xmlns="http://www.w3.org/2000/svg" xmlns:xlink="http://www.w3.org/1999/xlink" xml:space="preserve" xmlns:serif="http://www.serif.com/" style="fill-rule:evenodd;clip-rule:evenodd;stroke-linejoin:round;stroke-miterlimit:2;"><rect id="Filled" x="0" y="0" width="24" height="24" style="fill:none;"/><g id="Filled1" serif:id="Filled"><g id="Context"><path id="pin_message" d="M21.718,12.653c0.075,-0.075 0.117,-0.177 0.117,-0.283c0,-0.106 -0.042,-0.207 -0.117,-0.283c-1.48,-1.48 -8.325,-8.324 -9.805,-9.804c-0.156,-0.156 -0.409,-0.157 -0.565,-0.001c-0.263,0.263 -0.653,0.653 -0.916,0.915c-0.076,0.075 -0.118,0.177 -0.118,0.283c0,0.106 0.042,0.208 0.117,0.283c0.264,0.264 0.654,0.654 0.917,0.917c0.075,0.075 0.117,0.177 0.117,0.283c0,0.106 -0.042,0.207 -0.117,0.283c-1.083,1.082 -4.903,4.901 -4.903,4.901l-0,0.002c-0.001,0.001 -0.002,0 -0.003,-0.001c-0.044,-0.045 -0.779,-0.781 -1.196,-1.198c-0.075,-0.075 -0.177,-0.117 -0.283,-0.117c-0.106,-0 -0.208,0.042 -0.283,0.117c-0.263,0.263 -0.653,0.653 -0.916,0.917c-0.156,0.156 -0.156,0.409 0,0.565c0.801,0.801 3.078,3.078 3.879,3.878c0.075,0.076 0.118,0.177 0.118,0.283c-0,0.106 -0.043,0.208 -0.118,0.283c-1,1 -4.36,4.36 -5.36,5.36c-0.075,0.075 -0.117,0.177 -0.117,0.283c-0,0.106 0.042,0.208 0.117,0.283c0.263,0.263 0.653,0.652 0.915,0.915c0.157,0.156 0.41,0.156 0.566,0c1,-0.999 4.361,-4.36 5.361,-5.36c0.156,-0.156 0.409,-0.156 0.565,0c0.801,0.801 3.079,3.078 3.88,3.879c0.156,0.156 0.409,0.156 0.566,-0c0.263,-0.263 0.652,-0.653 0.915,-0.916c0.075,-0.075 0.117,-0.177 0.117,-0.283c0,-0.106 -0.042,-0.207 -0.117,-0.282c-0.263,-0.263 -0.652,-0.653 -0.915,-0.916c-0.157,-0.156 -0.157,-0.41 -0,-0.566c1.074,-1.075 4.847,-4.848 4.901,-4.902c0,-0 0.001,-0.001 0.001,-0.001c0,0 0,0 0,0c0,0 0.769,0.769 1.199,1.199c0.075,0.075 0.177,0.117 0.283,0.117c0.106,-0 0.208,-0.042 0.283,-0.117c0.263,-0.263 0.652,-0.653 0.915,-0.916Z" style="fill-rule:nonzero;"/></g></g></svg>