<?xml version="1.0" encoding="UTF-8" standalone="no"?><!DOCTYPE svg PUBLIC "-//W3C//DTD SVG 1.1//EN" "http://www.w3.org/Graphics/SVG/1.1/DTD/svg11.dtd"><svg width="100%" height="100%" viewBox="0 0 24 24" version="1.1" xmlns="http://www.w3.org/2000/svg" xmlns:xlink="http://www.w3.org/1999/xlink" xml:space="preserve" xmlns:serif="http://www.serif.com/" style="fill-rule:evenodd;clip-rule:evenodd;stroke-linejoin:round;stroke-miterlimit:2;"><rect id="Filled" x="0" y="0" width="24" height="24" style="fill:none;"/><g id="Filled1" serif:id="Filled"><g id="Context"><path id="play_on_spotify" d="M12,2c-5.523,0 -10,4.477 -10,10c0,5.523 4.477,10 10,10c5.524,0 10,-4.477 10,-10c0,-5.522 -4.476,-10 -10,-10l0,0Zm4.586,14.423c-0.179,0.294 -0.563,0.387 -0.857,0.207c-2.348,-1.435 -5.304,-1.759 -8.785,-0.964c-0.335,0.076 -0.67,-0.134 -0.746,-0.469c-0.077,-0.336 0.132,-0.67 0.469,-0.747c3.809,-0.87 7.077,-0.495 9.713,1.116c0.293,0.18 0.387,0.563 0.206,0.857Zm1.224,-2.723c-0.225,0.367 -0.706,0.483 -1.072,0.257c-2.688,-1.652 -6.786,-2.131 -9.965,-1.166c-0.412,0.125 -0.848,-0.107 -0.973,-0.519c-0.124,-0.412 0.108,-0.847 0.52,-0.972c3.632,-1.102 8.147,-0.569 11.233,1.328c0.367,0.226 0.483,0.706 0.257,1.072l0,0Zm0.105,-2.835c-3.223,-1.915 -8.54,-2.091 -11.617,-1.157c-0.495,0.15 -1.017,-0.129 -1.167,-0.623c-0.15,-0.494 0.129,-1.017 0.624,-1.167c3.532,-1.072 9.404,-0.865 13.115,1.338c0.445,0.264 0.591,0.838 0.327,1.282c-0.263,0.444 -0.838,0.591 -1.281,0.327l-0.001,-0Z" style="fill-rule:nonzero;"/></g></g></svg>