<?xml version="1.0" encoding="UTF-8" standalone="no"?><!DOCTYPE svg PUBLIC "-//W3C//DTD SVG 1.1//EN" "http://www.w3.org/Graphics/SVG/1.1/DTD/svg11.dtd"><svg width="100%" height="100%" viewBox="0 0 24 24" version="1.1" xmlns="http://www.w3.org/2000/svg" xmlns:xlink="http://www.w3.org/1999/xlink" xml:space="preserve" xmlns:serif="http://www.serif.com/" style="fill-rule:evenodd;clip-rule:evenodd;stroke-linejoin:round;stroke-miterlimit:2;"><rect id="Filled" x="0" y="0" width="24" height="24" style="fill:none;"/><g id="Filled1" serif:id="Filled"><g id="Context"><path d="M15,7.29l0,-4.29c0,-0.55 -0.45,-1 -1,-1l-4,0c-0.55,0 -1,0.45 -1,1l0,4.29c0,0.13 0.05,0.26 0.15,0.35l2.5,2.5c0.2,0.2 0.51,0.2 0.71,0l2.5,-2.5c0.09,-0.09 0.14,-0.21 0.14,-0.35Zm-7.71,1.71l-4.29,0c-0.55,0 -1,0.45 -1,1l0,4c0,0.55 0.45,1 1,1l4.29,0c0.13,0 0.26,-0.05 0.35,-0.15l2.5,-2.5c0.2,-0.2 0.2,-0.51 0,-0.71l-2.5,-2.5c-0.09,-0.09 -0.21,-0.14 -0.35,-0.14Zm1.71,7.71l0,4.29c0,0.55 0.45,1 1,1l4,0c0.55,0 1,-0.45 1,-1l0,-4.29c0,-0.13 -0.05,-0.26 -0.15,-0.35l-2.5,-2.5c-0.2,-0.2 -0.51,-0.2 -0.71,0l-2.5,2.5c-0.09,0.09 -0.14,0.21 -0.14,0.35Zm7.35,-7.56l-2.5,2.5c-0.2,0.2 -0.2,0.51 0,0.71l2.5,2.5c0.09,0.09 0.22,0.15 0.35,0.15l4.3,0c0.55,0 1,-0.45 1,-1l-0,-4c-0,-0.55 -0.45,-1 -1,-1l-4.29,0c-0.14,-0.01 -0.26,0.04 -0.36,0.14Z" style="fill-rule:nonzero;"/></g><g id="games_black_24dp.svg"></g></g></svg>