<?xml version="1.0" encoding="UTF-8" standalone="no"?><!DOCTYPE svg PUBLIC "-//W3C//DTD SVG 1.1//EN" "http://www.w3.org/Graphics/SVG/1.1/DTD/svg11.dtd"><svg width="100%" height="100%" viewBox="0 0 24 24" version="1.1" xmlns="http://www.w3.org/2000/svg" xmlns:xlink="http://www.w3.org/1999/xlink" xml:space="preserve" xmlns:serif="http://www.serif.com/" style="fill-rule:evenodd;clip-rule:evenodd;stroke-linejoin:round;stroke-miterlimit:2;"><rect id="Filled" x="0" y="0" width="24" height="24" style="fill:none;"/><g id="Filled1" serif:id="Filled"><g id="Context"><path id="powercord" d="M10.386,5.309l2.91,-2.91c0.531,-0.532 1.394,-0.532 1.925,-0c0.532,0.531 0.532,1.393 0,1.925l-2.91,2.91l2.171,2.171l2.91,-2.91c0.531,-0.532 1.394,-0.532 1.925,-0c0.532,0.531 0.532,1.393 0,1.925l-2.91,2.91l0.654,0.654c0.121,0.121 0.121,0.313 0,0.434l-1.076,1.076c-0.121,0.121 -0.313,0.121 -0.433,0l-0.215,-0.214l-3.582,3.582c-0.759,0.759 -1.997,0.759 -2.752,-0l-1.21,-1.21l-1.081,1.08c-0.121,0.117 -0.313,0.117 -0.433,0l-0.409,-0.408c-0.508,0.715 -0.442,1.715 0.199,2.351l2.805,2.806c0.12,0.12 0.12,0.312 -0,0.433c-0.121,0.12 -0.317,0.112 -0.438,-0.009l-2.801,-2.801c-0.878,-0.878 -0.945,-2.262 -0.203,-3.218l-0.449,-0.449c-0.12,-0.12 -0.12,-0.313 0,-0.433l1.081,-1.081l-1.21,-1.211c-0.76,-0.759 -0.76,-1.992 -0,-2.751l3.582,-3.582l-0.214,-0.215c-0.121,-0.12 -0.121,-0.313 -0,-0.433l1.076,-1.077c0.121,-0.12 0.313,-0.12 0.433,0l0.655,0.655Z" style="fill-rule:nonzero;"/></g></g></svg>