<?xml version="1.0" encoding="UTF-8" standalone="no"?><!DOCTYPE svg PUBLIC "-//W3C//DTD SVG 1.1//EN" "http://www.w3.org/Graphics/SVG/1.1/DTD/svg11.dtd"><svg width="100%" height="100%" viewBox="0 0 24 24" version="1.1" xmlns="http://www.w3.org/2000/svg" xmlns:xlink="http://www.w3.org/1999/xlink" xml:space="preserve" xmlns:serif="http://www.serif.com/" style="fill-rule:evenodd;clip-rule:evenodd;stroke-linejoin:round;stroke-miterlimit:2;"><rect id="Filled" x="0" y="0" width="24" height="24" style="fill:none;"/><g id="Filled1" serif:id="Filled"><g id="Context"><path d="M19.778,2l-15.556,0c-1.233,0 -2.222,1 -2.222,2.222l0,15.556c0,1.222 0.989,2.222 2.222,2.222l15.556,-0c1.222,-0 2.222,-1 2.222,-2.222l0,-15.556c0,-1.222 -0.989,-2.222 -2.222,-2.222Zm-0,17.778l-15.556,-0l0,-13.334l15.556,0l-0,13.334Zm-6.111,-6.667c-0,0.922 -0.745,1.667 -1.667,1.667c-0.922,-0 -1.667,-0.745 -1.667,-1.667c0,-0.922 0.745,-1.667 1.667,-1.667c0.922,0 1.667,0.745 1.667,1.667Zm-1.667,-4.444c-3.033,-0 -5.622,1.844 -6.667,4.444c1.045,2.6 3.634,4.445 6.667,4.445c3.033,-0 5.622,-1.845 6.667,-4.445c-1.045,-2.6 -3.634,-4.444 -6.667,-4.444Zm0,7.222c-1.533,-0 -2.778,-1.245 -2.778,-2.778c0,-1.533 1.245,-2.778 2.778,-2.778c1.533,0 2.778,1.245 2.778,2.778c-0,1.533 -1.245,2.778 -2.778,2.778Z" style="fill-rule:nonzero;"/></g></g></svg>