<?xml version="1.0" encoding="UTF-8" standalone="no"?><!DOCTYPE svg PUBLIC "-//W3C//DTD SVG 1.1//EN" "http://www.w3.org/Graphics/SVG/1.1/DTD/svg11.dtd"><svg width="100%" height="100%" viewBox="0 0 24 24" version="1.1" xmlns="http://www.w3.org/2000/svg" xmlns:xlink="http://www.w3.org/1999/xlink" xml:space="preserve" xmlns:serif="http://www.serif.com/" style="fill-rule:evenodd;clip-rule:evenodd;stroke-linejoin:round;stroke-miterlimit:2;"><rect id="Filled" x="0" y="0" width="24" height="24" style="fill:none;"/><g id="Filled1" serif:id="Filled"><g id="Context"><path id="privacy_settings" d="M12,22c0.192,0 0.386,-0.03 0.571,-0.09c4.3,-1.38 7.43,-5.99 7.43,-10.82l0.01,-6.217c-0,-0.553 -0.448,-1.002 -1.002,-1.002c-3.444,0 -5.507,-0.792 -6.141,-1.425c-0.217,-0.218 -0.56,-0.448 -0.868,-0.446c-0.308,-0.002 -0.651,0.228 -0.868,0.446c-0.634,0.633 -2.697,1.425 -6.141,1.425c-0.554,0 -1.002,0.449 -1.002,1.002l0.01,6.217c0,4.83 3.13,9.44 7.43,10.82c0.185,0.06 0.378,0.09 0.571,0.09Zm-0,-18.739l-0,8.739l6.959,0c-0.317,3.922 -2.94,7.53 -6.461,8.66c-0.161,0.052 -0.33,0.078 -0.498,0.078l-0,-8.738l-6.959,0c-0.021,-0.264 -0.032,-0.529 -0.032,-0.796l-0.009,-5.433c-0,-0.483 0.391,-0.875 0.875,-0.875c3.01,0 4.813,-0.692 5.366,-1.246c0.19,-0.19 0.49,-0.39 0.759,-0.389Z"/></g></g></svg>