<?xml version="1.0" encoding="UTF-8" standalone="no"?><!DOCTYPE svg PUBLIC "-//W3C//DTD SVG 1.1//EN" "http://www.w3.org/Graphics/SVG/1.1/DTD/svg11.dtd"><svg width="100%" height="100%" viewBox="0 0 24 24" version="1.1" xmlns="http://www.w3.org/2000/svg" xmlns:xlink="http://www.w3.org/1999/xlink" xml:space="preserve" xmlns:serif="http://www.serif.com/" style="fill-rule:evenodd;clip-rule:evenodd;stroke-linejoin:round;stroke-miterlimit:2;"><rect id="Filled" x="0" y="0" width="24" height="24" style="fill:none;"/><g id="Filled1" serif:id="Filled"><g id="Context"><path id="profile" d="M12,12c2.763,0 5,-2.237 5,-5c0,-2.763 -2.237,-5 -5,-5c-2.763,0 -5,2.238 -5,5c0,2.763 2.237,5 5,5Zm0,2.5c-3.338,0 -10,1.675 -10,5l0,1.25c0,0.688 0.563,1.25 1.25,1.25l17.5,0c0.688,0 1.25,-0.563 1.25,-1.25l0,-1.25c0,-3.325 -6.663,-5 -10,-5Z" style="fill-rule:nonzero;"/></g></g></svg>