<?xml version="1.0" encoding="UTF-8" standalone="no"?><!DOCTYPE svg PUBLIC "-//W3C//DTD SVG 1.1//EN" "http://www.w3.org/Graphics/SVG/1.1/DTD/svg11.dtd"><svg width="100%" height="100%" viewBox="0 0 24 24" version="1.1" xmlns="http://www.w3.org/2000/svg" xmlns:xlink="http://www.w3.org/1999/xlink" xml:space="preserve" xmlns:serif="http://www.serif.com/" style="fill-rule:evenodd;clip-rule:evenodd;stroke-linejoin:round;stroke-miterlimit:2;"><rect id="Filled" x="0" y="0" width="24" height="24" style="fill:none;"/><g id="Filled1" serif:id="Filled"><g id="Context"><path id="raw" d="M5.831,8.717l-2.737,-0c-0.601,-0 -1.094,0.492 -1.094,1.094l0,4.717c0,0.416 0.339,0.755 0.755,0.755l0.121,0c0.415,0 0.755,-0.339 0.755,-0.755l-0,-1.434l1.204,0l0.788,1.741c0.131,0.273 0.405,0.448 0.7,0.448c0.547,0 0.909,-0.558 0.701,-1.061l-0.537,-1.237c0.548,-0.328 0.985,-0.876 0.985,-1.532l0,-1.095c0,-0.897 -0.744,-1.641 -1.641,-1.641Zm5.472,-0c-0.799,-0 -1.499,0.547 -1.696,1.324l-1.062,4.257c-0.131,0.504 0.252,0.985 0.766,0.985c0.361,0 0.679,-0.251 0.766,-0.602l0.263,-1.039l1.915,-0l0.252,1.039c0.087,0.351 0.405,0.602 0.777,0.602c0.514,0 0.897,-0.481 0.777,-0.985l-1.062,-4.246c-0.197,-0.788 -0.897,-1.335 -1.696,-1.335Zm9.128,0.602l-0.657,2.681l-0.613,-2.473c-0.109,-0.482 -0.536,-0.81 -1.029,-0.81c-0.492,-0 -0.919,0.328 -1.028,0.81l-0.613,2.473l-0.657,-2.681c-0.088,-0.351 -0.405,-0.602 -0.777,-0.602c-0.514,-0 -0.897,0.481 -0.777,0.985l1.193,4.793c0.131,0.46 0.547,0.788 1.018,0.788c0.47,0 0.886,-0.328 1.007,-0.788l0.634,-2.539l0.635,2.539c0.121,0.46 0.536,0.788 1.007,0.788c0.471,0 0.887,-0.328 1.007,-0.788l1.193,-4.793c0.131,-0.504 -0.252,-0.985 -0.766,-0.985c-0.372,-0 -0.69,0.251 -0.777,0.602Zm-9.675,2.681l0.273,-1.094l0.548,-0l0.273,1.094l-1.094,0Zm-4.925,-0.547l-2.189,-0l-0,-1.095l2.189,0l-0,1.095Z" style="fill-rule:nonzero;"/></g></g></svg>