<?xml version="1.0" encoding="UTF-8" standalone="no"?><!DOCTYPE svg PUBLIC "-//W3C//DTD SVG 1.1//EN" "http://www.w3.org/Graphics/SVG/1.1/DTD/svg11.dtd"><svg width="100%" height="100%" viewBox="0 0 24 24" version="1.1" xmlns="http://www.w3.org/2000/svg" xmlns:xlink="http://www.w3.org/1999/xlink" xml:space="preserve" xmlns:serif="http://www.serif.com/" style="fill-rule:evenodd;clip-rule:evenodd;stroke-linejoin:round;stroke-miterlimit:2;"><rect id="Filled" x="0" y="0" width="24" height="24" style="fill:none;"/><clipPath id="_clip1"><rect id="Filled1" serif:id="Filled" x="0" y="0" width="24" height="24"/></clipPath><g clip-path="url(#_clip1)"><g id="Context"><path d="M15.696,2l-7.381,0c-0.289,0 -0.578,0.122 -0.779,0.322l-5.214,5.211c-0.2,0.2 -0.322,0.489 -0.322,0.778l0,7.367c0,0.3 0.122,0.578 0.322,0.789l5.203,5.2c0.212,0.211 0.501,0.333 0.79,0.333l7.37,-0c0.301,-0 0.578,-0.122 0.79,-0.322l5.203,-5.2c0.211,-0.211 0.322,-0.489 0.322,-0.789l0,-7.378c0,-0.3 -0.122,-0.578 -0.322,-0.789l-5.203,-5.2c-0.2,-0.2 -0.489,-0.322 -0.779,-0.322Zm-3.69,15.889c-0.801,-0 -1.446,-0.645 -1.446,-1.445c0,-0.8 0.645,-1.444 1.446,-1.444c0.8,-0 1.445,0.644 1.445,1.444c-0,0.8 -0.645,1.445 -1.445,1.445Zm-0,-4.778c-0.612,0 -1.112,-0.5 -1.112,-1.111l-0,-4.444c-0,-0.612 0.5,-1.112 1.112,-1.112c0.611,0 1.111,0.5 1.111,1.112l0,4.444c0,0.611 -0.5,1.111 -1.111,1.111Z" style="fill-rule:nonzero;"/></g><rect x="2" y="0" width="24" height="24" style="fill:none;fill-rule:nonzero;"/></g></svg>