<?xml version="1.0" encoding="UTF-8" standalone="no"?><!DOCTYPE svg PUBLIC "-//W3C//DTD SVG 1.1//EN" "http://www.w3.org/Graphics/SVG/1.1/DTD/svg11.dtd"><svg width="100%" height="100%" viewBox="0 0 24 24" version="1.1" xmlns="http://www.w3.org/2000/svg" xmlns:xlink="http://www.w3.org/1999/xlink" xml:space="preserve" xmlns:serif="http://www.serif.com/" style="fill-rule:evenodd;clip-rule:evenodd;stroke-linejoin:round;stroke-miterlimit:2;"><rect id="Filled" x="0" y="0" width="24" height="24" style="fill:none;"/><g id="Filled1" serif:id="Filled"><g id="Context"><path id="group_settings" d="M21.279,16.573c-0,-0.167 -0.023,-0.319 -0.046,-0.479l0.639,-0.555c0.137,-0.122 0.167,-0.319 0.076,-0.479l-0.449,-0.775c-0.091,-0.16 -0.281,-0.229 -0.448,-0.168l-0.806,0.274c-0.244,-0.205 -0.517,-0.365 -0.822,-0.479l-0.167,-0.829c-0.038,-0.175 -0.19,-0.304 -0.372,-0.304l-0.898,-0c-0.182,-0 -0.334,0.129 -0.372,0.304l-0.168,0.829c-0.304,0.114 -0.578,0.274 -0.821,0.479l-0.806,-0.274c-0.175,-0.061 -0.357,0.015 -0.448,0.168l-0.449,0.775c-0.091,0.16 -0.061,0.357 0.076,0.479l0.639,0.555c-0.023,0.16 -0.046,0.312 -0.046,0.479c0,0.168 0.023,0.32 0.046,0.479l-0.639,0.555c-0.137,0.122 -0.167,0.32 -0.076,0.479l0.449,0.776c0.091,0.16 0.281,0.228 0.448,0.167l0.806,-0.273c0.243,0.205 0.517,0.365 0.821,0.479l0.168,0.828c0.038,0.175 0.19,0.305 0.372,0.305l0.898,-0c0.182,-0 0.334,-0.13 0.372,-0.305l0.167,-0.828c0.305,-0.114 0.578,-0.274 0.822,-0.479l0.806,0.273c0.174,0.061 0.357,-0.015 0.448,-0.167l0.449,-0.776c0.091,-0.159 0.061,-0.357 -0.076,-0.479l-0.639,-0.555c0.023,-0.159 0.046,-0.311 0.046,-0.479Zm-8.055,1.695c0.023,0.067 0.012,0.141 -0.029,0.198c-0.041,0.057 -0.107,0.091 -0.178,0.091c-1.36,0.001 -6.726,0.001 -6.726,0.001c-0.309,-0 -0.56,-0.251 -0.56,-0.56c0,-0.817 0,-2.239 0,-2.239c0,-2.481 4.972,-3.731 7.463,-3.731c0.423,-0 0.918,0.036 1.448,0.108c0.085,0.012 0.155,0.072 0.179,0.154c0.025,0.083 -0.001,0.171 -0.065,0.228c-1.106,1.001 -1.799,2.448 -1.799,4.055c-0,0.592 0.094,1.162 0.267,1.695Zm-8.382,-5.319c0.04,-0.014 0.085,0.001 0.109,0.036c0.023,0.036 0.019,0.083 -0.01,0.115c-0.66,0.721 -1.075,1.597 -1.075,2.659l-0,2.239c-0,0.309 -0.251,0.56 -0.56,0.56c-0.236,-0 -0.51,-0 -0.746,-0c-0.309,-0 -0.56,-0.251 -0.56,-0.56c0,-0.817 0,-2.239 0,-2.239c0,-1.25 1.266,-2.189 2.842,-2.81Zm13.585,5.145c-0.836,0 -1.52,-0.684 -1.52,-1.521c-0,-0.836 0.684,-1.52 1.52,-1.52c0.837,-0 1.521,0.684 1.521,1.52c0,0.837 -0.684,1.521 -1.521,1.521Zm-5.233,-6.999c-2.062,-0 -3.731,-1.67 -3.731,-3.731c-0,-2.062 1.669,-3.732 3.731,-3.732c2.062,0 3.731,1.67 3.731,3.732c0,2.061 -1.669,3.731 -3.731,3.731Zm-4.452,-7.377c0.038,-0.006 0.076,0.012 0.095,0.046c0.019,0.033 0.015,0.074 -0.009,0.104c-0.764,0.962 -1.231,2.175 -1.231,3.496c-0,1.32 0.467,2.533 1.232,3.494c0.025,0.03 0.029,0.073 0.01,0.107c-0.02,0.034 -0.059,0.052 -0.097,0.045c-1.709,-0.335 -3.011,-1.829 -3.011,-3.646c0,-1.818 1.302,-3.311 3.011,-3.646Z" style="fill-rule:nonzero;"/></g></g></svg>