<?xml version="1.0" encoding="UTF-8" standalone="no"?><!DOCTYPE svg PUBLIC "-//W3C//DTD SVG 1.1//EN" "http://www.w3.org/Graphics/SVG/1.1/DTD/svg11.dtd"><svg width="100%" height="100%" viewBox="0 0 24 24" version="1.1" xmlns="http://www.w3.org/2000/svg" xmlns:xlink="http://www.w3.org/1999/xlink" xml:space="preserve" xmlns:serif="http://www.serif.com/" style="fill-rule:evenodd;clip-rule:evenodd;stroke-linejoin:round;stroke-miterlimit:2;"><rect id="Filled" x="0" y="0" width="24" height="24" style="fill:none;"/><g id="Filled1" serif:id="Filled"><g id="Context"><path id="save_image" d="M18.211,2.656c-0.422,-0.423 -0.989,-0.656 -1.578,-0.656l-12.411,0c-1.233,0 -2.222,1 -2.222,2.222l-0,15.556c-0,1.222 1,2.222 2.222,2.222l15.556,0c1.222,0 2.222,-1 2.222,-2.222l-0,-12.411c-0,-0.589 -0.233,-1.156 -0.656,-1.567l-3.133,-3.144Zm-6.211,17.122c-1.844,-0 -3.333,-1.489 -3.333,-3.334c-0,-1.844 1.489,-3.333 3.333,-3.333c1.844,0 3.333,1.489 3.333,3.333c0,1.845 -1.489,3.334 -3.333,3.334Zm1.111,-11.111l-6.667,-0c-1.222,-0 -2.222,-1 -2.222,-2.223c0,-1.222 1,-2.222 2.222,-2.222l6.667,0c1.222,0 2.222,1 2.222,2.222c0,1.223 -1,2.223 -2.222,2.223Z" style="fill-rule:nonzero;"/></g></g></svg>