<?xml version="1.0" encoding="UTF-8" standalone="no"?><!DOCTYPE svg PUBLIC "-//W3C//DTD SVG 1.1//EN" "http://www.w3.org/Graphics/SVG/1.1/DTD/svg11.dtd"><svg width="100%" height="100%" viewBox="0 0 24 24" version="1.1" xmlns="http://www.w3.org/2000/svg" xmlns:xlink="http://www.w3.org/1999/xlink" xml:space="preserve" xmlns:serif="http://www.serif.com/" style="fill-rule:evenodd;clip-rule:evenodd;stroke-linejoin:round;stroke-miterlimit:2;"><rect id="Filled" x="0" y="0" width="24" height="24" style="fill:none;"/><g id="Filled1" serif:id="Filled"><g id="Context"><path id="search_with_google" d="M18.667,19.778l-13.334,-0c-0.611,-0 -1.111,-0.5 -1.111,-1.111l0,-13.334c0,-0.611 0.5,-1.111 1.111,-1.111l5.556,0c0.611,0 1.111,-0.5 1.111,-1.111c-0,-0.611 -0.5,-1.111 -1.111,-1.111l-6.667,0c-1.233,0 -2.222,1 -2.222,2.222l-0,15.556c-0,1.222 1,2.222 2.222,2.222l15.556,0c1.222,0 2.222,-1 2.222,-2.222l-0,-6.667c-0,-0.611 -0.5,-1.111 -1.111,-1.111c-0.611,0 -1.111,0.5 -1.111,1.111l-0,5.556c-0,0.611 -0.5,1.111 -1.111,1.111Zm-4.445,-16.667c0,0.611 0.5,1.111 1.111,1.111l2.878,0l-10.144,10.145c-0.434,0.433 -0.434,1.133 -0,1.566c0.433,0.434 1.133,0.434 1.566,0l10.145,-10.144l-0,2.878c-0,0.611 0.5,1.111 1.111,1.111c0.611,-0 1.111,-0.5 1.111,-1.111l-0,-5.556c-0,-0.611 -0.5,-1.111 -1.111,-1.111l-5.556,0c-0.611,0 -1.111,0.5 -1.111,1.111Z" style="fill-rule:nonzero;"/></g></g></svg>