<?xml version="1.0" encoding="UTF-8" standalone="no"?><!DOCTYPE svg PUBLIC "-//W3C//DTD SVG 1.1//EN" "http://www.w3.org/Graphics/SVG/1.1/DTD/svg11.dtd"><svg width="100%" height="100%" viewBox="0 0 24 24" version="1.1" xmlns="http://www.w3.org/2000/svg" xmlns:xlink="http://www.w3.org/1999/xlink" xml:space="preserve" xmlns:serif="http://www.serif.com/" style="fill-rule:evenodd;clip-rule:evenodd;stroke-linejoin:round;stroke-miterlimit:2;"><rect id="Filled" x="0" y="0" width="24" height="24" style="fill:none;"/><g id="Filled1" serif:id="Filled"><g id="Context"><path id="server_insights" d="M6.064,21.952c-0.012,0.009 -0.028,0.011 -0.042,0.004c-0.013,-0.007 -0.022,-0.021 -0.022,-0.036c0,-0.564 0,-3.92 0,-3.92l-2,0c-1.097,0 -2,-0.903 -2,-2l0,-12c0,-1.097 0.903,-2 2,-2l16,0c1.097,0 2,0.903 2,2l0,12c0,1.097 -0.903,2 -2,2l-8.667,0c0,0 -4.666,3.499 -5.269,3.952Zm-1.864,-17.952c-0.053,-0 -0.104,0.021 -0.141,0.059c-0.038,0.037 -0.059,0.088 -0.059,0.141c0,1.436 0,10.164 0,11.6c-0,0.053 0.021,0.104 0.059,0.141c0.037,0.038 0.088,0.059 0.141,0.059c0.683,0 2.917,0 3.6,0c0.11,0 0.2,0.09 0.2,0.2c0,0.431 0,1.43 0,1.72c-0,0.015 0.009,0.029 0.022,0.036c0.014,0.007 0.03,0.005 0.042,-0.004c0.368,-0.276 2.211,-1.658 2.549,-1.912c0.035,-0.026 0.077,-0.04 0.12,-0.04c0.76,0 7.786,0 9.067,0c0.053,0 0.104,-0.021 0.141,-0.059c0.038,-0.037 0.059,-0.088 0.059,-0.141c0,-1.436 0,-10.164 0,-11.6c0,-0.053 -0.021,-0.104 -0.059,-0.141c-0.037,-0.038 -0.088,-0.059 -0.141,-0.059c-1.713,0 -13.887,0 -15.6,0Zm8.8,6.2c-0,-0.11 -0.09,-0.2 -0.2,-0.2c-0.383,0 -1.217,0 -1.6,0c-0.11,0 -0.2,0.09 -0.2,0.2c0,0.683 0,2.917 0,3.6c0,0.11 0.09,0.2 0.2,0.2c0.383,0 1.217,0 1.6,0c0.11,-0 0.2,-0.09 0.2,-0.2c0,-0.683 0,-2.917 0,-3.6Zm4,-2c-0,-0.11 -0.09,-0.2 -0.2,-0.2c-0.383,0 -1.217,0 -1.6,0c-0.11,0 -0.2,0.09 -0.2,0.2c0,0.914 0,4.686 0,5.6c0,0.11 0.09,0.2 0.2,0.2c0.383,0 1.217,0 1.6,0c0.11,-0 0.2,-0.09 0.2,-0.2c0,-0.914 0,-4.686 0,-5.6Zm-8,-2c0,-0.11 -0.09,-0.2 -0.2,-0.2c-0.383,0 -1.217,0 -1.6,0c-0.11,0 -0.2,0.09 -0.2,0.2c0,1.109 0,6.491 0,7.6c-0,0.11 0.09,0.2 0.2,0.2c0.383,0 1.217,0 1.6,0c0.11,-0 0.2,-0.09 0.2,-0.2c0,-1.109 0,-6.491 0,-7.6Z" style="fill-rule:nonzero;"/></g></g></svg>