<?xml version="1.0" encoding="UTF-8" standalone="no"?><!DOCTYPE svg PUBLIC "-//W3C//DTD SVG 1.1//EN" "http://www.w3.org/Graphics/SVG/1.1/DTD/svg11.dtd"><svg width="100%" height="100%" viewBox="0 0 24 24" version="1.1" xmlns="http://www.w3.org/2000/svg" xmlns:xlink="http://www.w3.org/1999/xlink" xml:space="preserve" xmlns:serif="http://www.serif.com/" style="fill-rule:evenodd;clip-rule:evenodd;stroke-linejoin:round;stroke-miterlimit:2;"><rect id="Filled" x="0" y="0" width="24" height="24" style="fill:none;"/><g id="Filled1" serif:id="Filled"><g id="Context"><path id="settings" d="M19.437,12.979c0.042,-0.312 0.063,-0.635 0.063,-0.979c-0,-0.333 -0.021,-0.667 -0.073,-0.979l2.115,-1.646c0.187,-0.146 0.239,-0.427 0.125,-0.635l-2,-3.459c-0.125,-0.229 -0.386,-0.302 -0.615,-0.229l-2.49,1c-0.52,-0.396 -1.072,-0.729 -1.687,-0.979l-0.375,-2.646c-0.042,-0.25 -0.25,-0.427 -0.5,-0.427l-4,-0c-0.25,-0 -0.448,0.177 -0.49,0.427l-0.375,2.646c-0.614,0.25 -1.177,0.594 -1.687,0.979l-2.49,-1c-0.229,-0.083 -0.489,0 -0.614,0.229l-1.99,3.459c-0.125,0.218 -0.083,0.489 0.125,0.635l2.115,1.646c-0.052,0.312 -0.094,0.656 -0.094,0.979c-0,0.323 0.021,0.667 0.073,0.979l-2.115,1.646c-0.187,0.146 -0.239,0.427 -0.125,0.635l2,3.459c0.125,0.229 0.386,0.302 0.615,0.229l2.489,-1c0.521,0.396 1.073,0.729 1.688,0.979l0.375,2.646c0.052,0.25 0.25,0.427 0.5,0.427l4,0c0.25,0 0.458,-0.177 0.49,-0.427l0.375,-2.646c0.614,-0.25 1.177,-0.583 1.687,-0.979l2.49,1c0.229,0.083 0.489,-0 0.614,-0.229l2,-3.459c0.125,-0.229 0.073,-0.489 -0.125,-0.635l-2.094,-1.646Zm-7.437,2.771c-2.063,0 -3.75,-1.687 -3.75,-3.75c-0,-2.063 1.687,-3.75 3.75,-3.75c2.062,0 3.75,1.688 3.75,3.75c-0,2.063 -1.688,3.75 -3.75,3.75Z" style="fill-rule:nonzero;"/></g></g></svg>