<?xml version="1.0" encoding="UTF-8" standalone="no"?><!DOCTYPE svg PUBLIC "-//W3C//DTD SVG 1.1//EN" "http://www.w3.org/Graphics/SVG/1.1/DTD/svg11.dtd"><svg width="100%" height="100%" viewBox="0 0 24 24" version="1.1" xmlns="http://www.w3.org/2000/svg" xmlns:xlink="http://www.w3.org/1999/xlink" xml:space="preserve" xmlns:serif="http://www.serif.com/" style="fill-rule:evenodd;clip-rule:evenodd;stroke-linejoin:round;stroke-miterlimit:2;"><rect id="Filled" x="0" y="0" width="24" height="24" style="fill:none;"/><g id="Filled1" serif:id="Filled"><g id="Context"><path id="server_profile" d="M19.778,13.111l-15.556,0c-1.222,0 -2.222,1 -2.222,2.222l0,4.445c0,1.222 1,2.222 2.222,2.222l15.556,0c1.222,0 2.222,-1 2.222,-2.222l0,-4.445c0,-1.222 -1,-2.222 -2.222,-2.222Zm-13.334,6.667c-1.222,-0 -2.222,-1 -2.222,-2.222c0,-1.223 1,-2.223 2.222,-2.223c1.223,0 2.223,1 2.223,2.223c-0,1.222 -1,2.222 -2.223,2.222Zm13.334,-17.778l-15.556,0c-1.222,0 -2.222,1 -2.222,2.222l0,4.445c0,1.222 1,2.222 2.222,2.222l15.556,-0c1.222,-0 2.222,-1 2.222,-2.222l0,-4.445c0,-1.222 -1,-2.222 -2.222,-2.222Zm-13.334,6.667c-1.222,-0 -2.222,-1 -2.222,-2.223c0,-1.222 1,-2.222 2.222,-2.222c1.223,0 2.223,1 2.223,2.222c-0,1.223 -1,2.223 -2.223,2.223Z" style="fill-rule:nonzero;"/></g></g></svg>