<?xml version="1.0" encoding="UTF-8" standalone="no"?><!DOCTYPE svg PUBLIC "-//W3C//DTD SVG 1.1//EN" "http://www.w3.org/Graphics/SVG/1.1/DTD/svg11.dtd"><svg width="100%" height="100%" viewBox="0 0 24 24" version="1.1" xmlns="http://www.w3.org/2000/svg" xmlns:xlink="http://www.w3.org/1999/xlink" xml:space="preserve" xmlns:serif="http://www.serif.com/" style="fill-rule:evenodd;clip-rule:evenodd;stroke-linejoin:round;stroke-miterlimit:2;"><rect id="Filled" x="0" y="0" width="24" height="24" style="fill:none;"/><g id="Filled1" serif:id="Filled"><g id="Context"><path id="server_boost" d="M12.141,2.141c-0.078,-0.078 -0.204,-0.078 -0.282,0c-0.906,0.906 -5.871,5.871 -6.467,6.467c-0.038,0.038 -0.059,0.088 -0.059,0.141c0,0.712 0,5.79 0,6.502c0,0.053 0.021,0.103 0.059,0.141c0.596,0.596 5.561,5.561 6.467,6.467c0.078,0.078 0.204,0.078 0.282,-0c0.906,-0.906 5.871,-5.871 6.467,-6.467c0.038,-0.038 0.059,-0.088 0.059,-0.141c-0,-0.712 -0,-5.79 -0,-6.502c-0,-0.053 -0.021,-0.103 -0.059,-0.141c-0.596,-0.596 -5.561,-5.561 -6.467,-6.467Zm4.859,12.426c0,0.053 -0.021,0.104 -0.059,0.142c-0.499,0.499 -4.044,4.044 -4.8,4.8c-0.078,0.078 -0.204,0.078 -0.282,-0c-0.756,-0.756 -4.301,-4.301 -4.8,-4.8c-0.038,-0.038 -0.059,-0.089 -0.059,-0.142c0,-0.619 0,-4.515 0,-5.134c-0,-0.053 0.021,-0.104 0.059,-0.142c0.499,-0.499 4.044,-4.044 4.8,-4.8c0.078,-0.078 0.204,-0.078 0.282,0c0.756,0.756 4.301,4.301 4.8,4.8c0.038,0.038 0.059,0.089 0.059,0.142c-0,0.619 -0,4.515 -0,5.134Zm-8.275,-4.576c-0.037,0.038 -0.058,0.089 -0.058,0.142c-0,0.51 -0,3.224 -0,3.734c-0,0.053 0.021,0.104 0.058,0.142c0.385,0.385 2.556,2.555 3.134,3.133c0.078,0.078 0.204,0.078 0.282,-0c0.578,-0.578 2.749,-2.748 3.134,-3.133c0.037,-0.038 0.058,-0.089 0.058,-0.142c0,-0.51 0,-3.224 0,-3.734c0,-0.053 -0.021,-0.104 -0.058,-0.142c-0.385,-0.385 -2.556,-2.555 -3.134,-3.133c-0.078,-0.078 -0.204,-0.078 -0.282,0c-0.578,0.578 -2.749,2.748 -3.134,3.133Z" style="fill-rule:nonzero;"/></g></g></svg>