<?xml version="1.0" encoding="UTF-8" standalone="no"?><!DOCTYPE svg PUBLIC "-//W3C//DTD SVG 1.1//EN" "http://www.w3.org/Graphics/SVG/1.1/DTD/svg11.dtd"><svg width="100%" height="100%" viewBox="0 0 24 24" version="1.1" xmlns="http://www.w3.org/2000/svg" xmlns:xlink="http://www.w3.org/1999/xlink" xml:space="preserve" xmlns:serif="http://www.serif.com/" style="fill-rule:evenodd;clip-rule:evenodd;stroke-linejoin:round;stroke-miterlimit:2;"><rect id="Filled" x="0" y="0" width="24" height="24" style="fill:none;"/><g id="Filled1" serif:id="Filled"><g id="Context"><path d="M2,4c0,-1.105 0.896,-2 2,-2l16,0c1.105,0 2,0.895 2,2l0,12c0,1.104 -0.895,2 -2,2l-9,0l-4,4l0,-4l-3,0c-1.104,0 -2,-0.896 -2,-2l0,-12Zm9.529,0.403c0.177,-0.177 0.444,-0.229 0.677,-0.134c0.232,0.094 0.383,0.321 0.383,0.57l-0,9.877c-0,0.25 -0.151,0.475 -0.383,0.571c-0.233,0.095 -0.5,0.042 -0.677,-0.134l-2.667,-2.907l-1.863,0c-0.342,0 -0.621,-0.277 -0.621,-0.617l-0,-3.704c-0,-0.339 0.279,-0.617 0.621,-0.617l1.863,-0l2.667,-2.905Zm2.302,2.288l-0,-1.235c2.398,0 4.348,1.939 4.348,4.321c-0,2.384 -1.95,4.321 -4.348,4.321l-0,-1.234c1.712,-0 3.106,-1.385 3.106,-3.087c-0,-1.701 -1.394,-3.086 -3.106,-3.086Zm1.863,3.086c0,-1.02 -0.836,-1.852 -1.863,-1.852l-0,1.235c0.342,-0 0.621,0.277 0.621,0.617c0,0.34 -0.279,0.617 -0.621,0.617l-0,1.235c1.027,0 1.863,-0.83 1.863,-1.852Z"/></g></g></svg>