<?xml version="1.0" encoding="UTF-8" standalone="no"?><!DOCTYPE svg PUBLIC "-//W3C//DTD SVG 1.1//EN" "http://www.w3.org/Graphics/SVG/1.1/DTD/svg11.dtd"><svg width="100%" height="100%" viewBox="0 0 24 24" version="1.1" xmlns="http://www.w3.org/2000/svg" xmlns:xlink="http://www.w3.org/1999/xlink" xml:space="preserve" xmlns:serif="http://www.serif.com/" style="fill-rule:evenodd;clip-rule:evenodd;stroke-linejoin:round;stroke-miterlimit:2;"><rect id="Filled" x="0" y="0" width="24" height="24" style="fill:none;"/><g id="Filled1" serif:id="Filled"><g id="Context"><path id="text_react" d="M9.411,5.046c0.419,-1.134 1.381,-2.046 2.638,-2.046c1.307,0 2.221,0.863 2.639,2.046l4.833,13.415c0.148,0.394 0.197,0.74 0.197,0.912c0,0.961 -0.789,1.627 -1.701,1.627c-1.036,-0 -1.554,-0.542 -1.8,-1.281l-0.741,-2.319l-6.855,0l-0.74,2.294c-0.246,0.764 -0.764,1.306 -1.775,1.306c-0.986,-0 -1.824,-0.74 -1.824,-1.726c-0,-0.394 0.123,-0.69 0.172,-0.813l4.957,-13.415Zm0.271,8.952l4.685,0l-2.293,-7.151l-0.049,-0l-2.343,7.151Z" style="fill-rule:nonzero;"/></g></g></svg>