<?xml version="1.0" encoding="UTF-8" standalone="no"?><!DOCTYPE svg PUBLIC "-//W3C//DTD SVG 1.1//EN" "http://www.w3.org/Graphics/SVG/1.1/DTD/svg11.dtd"><svg width="100%" height="100%" viewBox="0 0 24 24" version="1.1" xmlns="http://www.w3.org/2000/svg" xmlns:xlink="http://www.w3.org/1999/xlink" xml:space="preserve" xmlns:serif="http://www.serif.com/" style="fill-rule:evenodd;clip-rule:evenodd;stroke-linejoin:round;stroke-miterlimit:2;"><rect id="Filled" x="0" y="0" width="24" height="24" style="fill:none;"/><g id="Filled1" serif:id="Filled"><g id="Context"><path id="video_call" d="M17.556,10.333l-0,-3.889c-0,-0.611 -0.5,-1.111 -1.112,-1.111l-13.333,0c-0.611,0 -1.111,0.5 -1.111,1.111l-0,11.112c-0,0.611 0.5,1.111 1.111,1.111l13.333,-0c0.612,-0 1.112,-0.5 1.112,-1.111l-0,-3.889l2.544,2.544c0.7,0.7 1.9,0.2 1.9,-0.789l0,-6.855c0,-0.989 -1.2,-1.489 -1.9,-0.789l-2.544,2.555Z" style="fill-rule:nonzero;"/></g></g></svg>