<?xml version="1.0" encoding="UTF-8" standalone="no"?><!DOCTYPE svg PUBLIC "-//W3C//DTD SVG 1.1//EN" "http://www.w3.org/Graphics/SVG/1.1/DTD/svg11.dtd"><svg width="100%" height="100%" viewBox="0 0 24 24" version="1.1" xmlns="http://www.w3.org/2000/svg" xmlns:xlink="http://www.w3.org/1999/xlink" xml:space="preserve" xmlns:serif="http://www.serif.com/" style="fill-rule:evenodd;clip-rule:evenodd;stroke-linejoin:round;stroke-miterlimit:2;"><rect id="Filled" x="0" y="0" width="24" height="24" style="fill:none;"/><g id="Filled1" serif:id="Filled"><g id="Context"><path d="M12,5.182c-4.545,-0 -8.427,2.827 -10,6.818c1.573,3.991 5.455,6.818 10,6.818c4.545,0 8.427,-2.827 10,-6.818c-1.573,-3.991 -5.455,-6.818 -10,-6.818Zm0,11.363c-2.509,0 -4.545,-2.036 -4.545,-4.545c-0,-2.509 2.036,-4.545 4.545,-4.545c2.509,-0 4.545,2.036 4.545,4.545c0,2.509 -2.036,4.545 -4.545,4.545Zm0,-7.272c-1.509,-0 -2.727,1.218 -2.727,2.727c-0,1.509 1.218,2.727 2.727,2.727c1.509,0 2.727,-1.218 2.727,-2.727c0,-1.509 -1.218,-2.727 -2.727,-2.727Z" style="fill-rule:nonzero;"/></g></g></svg>