<?xml version="1.0" encoding="UTF-8" standalone="no"?><!DOCTYPE svg PUBLIC "-//W3C//DTD SVG 1.1//EN" "http://www.w3.org/Graphics/SVG/1.1/DTD/svg11.dtd"><svg width="100%" height="100%" viewBox="0 0 24 24" version="1.1" xmlns="http://www.w3.org/2000/svg" xmlns:xlink="http://www.w3.org/1999/xlink" xml:space="preserve" xmlns:serif="http://www.serif.com/" style="fill-rule:evenodd;clip-rule:evenodd;stroke-linejoin:round;stroke-miterlimit:2;"><rect id="Filled" x="0" y="0" width="24" height="24" style="fill:none;"/><g id="Filled1" serif:id="Filled"><g id="Context"><path id="watch_stream" d="M20.182,3.818l-16.364,0c-1,0 -1.818,0.818 -1.818,1.818l-0,10.909c-0,1 0.818,1.819 1.818,1.819l4.546,-0l-0,0.909c-0,0.5 0.409,0.909 0.909,0.909l5.454,-0c0.5,-0 0.909,-0.409 0.909,-0.909l0,-0.909l4.546,-0c1,-0 1.809,-0.819 1.809,-1.819l0.009,-10.909c0,-1 -0.818,-1.818 -1.818,-1.818Zm-0.909,12.727l-14.546,0c-0.5,0 -0.909,-0.409 -0.909,-0.909l0,-9.091c0,-0.5 0.409,-0.909 0.909,-0.909l14.546,0c0.5,0 0.909,0.409 0.909,0.909l-0,9.091c-0,0.5 -0.409,0.909 -0.909,0.909Z" style="fill-rule:nonzero;"/></g></g></svg>